<?xml version="1.0" encoding="utf-8"?>
<!-- Generator: Adobe Illustrator 27.2.0, SVG Export Plug-In . SVG Version: 6.00 Build 0)  -->
<svg version="1.1" id="Capa_1" xmlns="http://www.w3.org/2000/svg" xmlns:xlink="http://www.w3.org/1999/xlink" x="0px" y="0px"
	 viewBox="0 0 500 500" style="enable-background:new 0 0 500 500;" xml:space="preserve">
<style type="text/css">
	.st0{opacity:2.000000e-02;}
	.st1{fill:#FFFFFF;}
	.st2{fill:#606060;}
	.st3{opacity:3.000000e-02;}
	.st4{opacity:1.000000e-02;}
</style>
<g class="st0">
	<g>
		<path class="st1" d="M-145.1,240.2l-11.4,19.7l-17.2,0l-8.6,14.9l-22.8,0l-23.7,41l23.6,41l39.6,0.1l20.1,34.9l47.3,0.1l23.7-41
			l-19.9-34.6l20.2-34.8l-23.6-41L-145.1,240.2z M-197.8,343.9l-16.2-28.2l16.3-28.2l31.3,0l1.8,1l15.7,27.2l-16.3,28.2
			L-197.8,343.9z M-89.2,350.7l-16.3,28.2l-32.6,0l-4.4-7.6l48.9-28.1L-89.2,350.7z M-100,332l-48.9,28.1l-5.5-9.5l16.3-28.2l32.6,0
			L-100,332z M-89,281.2l-16.3,28.2l-32.6,0l-16.2-28.2l16.3-28.2l32.6,0L-89,281.2z"/>
	</g>
</g>
<g class="st0">
	<g>
		<path class="st1" d="M3.8,154.4l-11.4,19.7l-17.2,0l-8.6,14.9l-22.8,0l-23.7,41l23.6,41l39.6,0.1l20.1,34.9l47.3,0.1l23.7-41
			l-19.9-34.6l20.2-34.8l-23.6-41L3.8,154.4z M-48.9,258.2L-65.1,230l16.3-28.2l31.3,0l1.8,1L0,230l-16.3,28.2L-48.9,258.2z
			 M59.7,265l-16.3,28.2l-32.6,0l-4.4-7.6l48.9-28.1L59.7,265z M49,246.3L0.1,274.4l-5.5-9.5l16.3-28.2l32.6,0L49,246.3z M60,195.5
			l-16.3,28.2l-32.6,0l-16.2-28.2l16.3-28.2l32.6,0L60,195.5z"/>
	</g>
</g>
<g class="st0">
	<g>
		<path class="st1" d="M4.2,326.2l-11.4,19.7l-17.2,0l-8.6,14.9l-22.8,0l-23.7,41l23.6,41l39.6,0.1l20.1,34.9l47.3,0.1l23.7-41
			L55,402.1l20.2-34.8l-23.6-41L4.2,326.2z M-48.5,429.9l-16.2-28.2l16.3-28.2l31.3,0l1.8,1l15.7,27.2l-16.3,28.2L-48.5,429.9z
			 M60.1,436.7l-16.3,28.2l-32.6,0l-4.4-7.6l48.9-28.1L60.1,436.7z M49.3,418L0.5,446.1l-5.5-9.5l16.3-28.2l32.6,0L49.3,418z
			 M60.4,367.2L44,395.4l-32.6,0l-16.2-28.2L11.6,339l32.6,0L60.4,367.2z"/>
	</g>
</g>
<g class="st0">
	<g>
		<path class="st1" d="M153.1,240.5l-11.4,19.7l-17.2,0l-8.6,14.9l-22.8,0l-23.7,41l23.6,41l39.6,0.1l20.1,34.9l47.3,0.1l23.7-41
			l-19.9-34.6l20.2-34.8l-23.6-41L153.1,240.5z M100.5,344.2L84.2,316l16.3-28.2l31.3,0l1.8,1l15.7,27.2L133,344.2L100.5,344.2z
			 M209,351l-16.3,28.2l-32.6,0l-4.4-7.6l48.9-28.1L209,351z M198.3,332.3l-48.9,28.1l-5.5-9.5l16.3-28.2l32.6,0L198.3,332.3z
			 M209.3,281.5L193,309.7l-32.6,0l-16.2-28.2l16.3-28.2l32.6,0L209.3,281.5z"/>
	</g>
</g>
<g class="st0">
	<g>
		<path class="st1" d="M-138.7,408.4l-11.4,19.7l-17.2,0l-8.6,14.9l-22.8,0l-23.7,41l23.6,41l39.6,0.1l20.1,34.9l47.3,0.1l23.7-41
			l-19.9-34.6l20.2-34.8l-23.6-41L-138.7,408.4z M-191.4,512.1l-16.2-28.2l16.3-28.2l31.3,0l1.8,1l15.7,27.2l-16.3,28.2
			L-191.4,512.1z M-82.8,518.9l-16.3,28.2l-32.6,0l-4.4-7.6l48.9-28.1L-82.8,518.9z M-93.5,500.2l-48.9,28.1l-5.5-9.5l16.3-28.2
			l32.6,0L-93.5,500.2z M-82.5,449.5l-16.3,28.2l-32.6,0l-16.2-28.2l16.3-28.2l32.6,0L-82.5,449.5z"/>
	</g>
</g>
<g class="st0">
	<g>
		<path class="st1" d="M4.3,499.9l-11.4,19.7l-17.2,0l-8.6,14.9l-22.8,0l-23.7,41l23.6,41l39.6,0.1L4,651.3l47.3,0.1l23.7-41
			l-19.9-34.6L75.3,541l-23.6-41L4.3,499.9z M-48.3,603.6l-16.2-28.2l16.3-28.2l31.3,0l1.8,1l15.7,27.2l-16.3,28.2L-48.3,603.6z
			 M60.2,610.4l-16.3,28.2l-32.6,0L7,630.9l48.9-28.1L60.2,610.4z M49.5,591.7L0.6,619.8l-5.5-9.5l16.3-28.2l32.6,0L49.5,591.7z
			 M60.5,541l-16.3,28.2l-32.6,0l-16.2-28.2l16.3-28.2l32.6,0L60.5,541z"/>
	</g>
</g>
<g class="st0">
	<g>
		<path class="st1" d="M153.3,414.2l-11.4,19.7l-17.2,0l-8.6,14.9l-22.8,0l-23.7,41l23.6,41l39.6,0.1l20.1,34.9l47.3,0.1l23.7-41
			L204,490.1l20.2-34.8l-23.6-41L153.3,414.2z M100.6,517.9l-16.2-28.2l16.3-28.2l31.3,0l1.8,1l15.7,27.2l-16.3,28.2L100.6,517.9z
			 M209.2,524.7l-16.3,28.2l-32.6,0l-4.4-7.6l48.9-28.1L209.2,524.7z M198.4,506l-48.9,28.1l-5.5-9.5l16.3-28.2l32.6,0L198.4,506z
			 M209.4,455.2l-16.3,28.2l-32.6,0l-16.2-28.2l16.3-28.2l32.6,0L209.4,455.2z"/>
	</g>
</g>
<g class="st0">
	<g>
		<path class="st1" d="M302.2,328.4l-11.4,19.7l-17.2,0L265,363l-22.8,0l-23.7,41l23.6,41l39.6,0.1l20.1,34.9l47.3,0.1l23.7-41
			L353,404.4l20.2-34.8l-23.6-41L302.2,328.4z M249.6,432.2l-16.2-28.2l16.3-28.2l31.3,0l1.8,1l15.7,27.2l-16.3,28.2L249.6,432.2z
			 M358.1,439l-16.3,28.2l-32.6,0l-4.4-7.6l48.9-28.1L358.1,439z M347.4,420.3l-48.9,28.1l-5.5-9.5l16.3-28.2l32.6,0L347.4,420.3z
			 M358.4,369.5l-16.3,28.2l-32.6,0l-16.2-28.2l16.3-28.2l32.6,0L358.4,369.5z"/>
	</g>
</g>
<g class="st0">
	<g>
		<path class="st1" d="M153.7,585.9l-11.4,19.7l-17.2,0l-8.6,14.9l-22.8,0l-23.7,41l23.6,41l39.6,0.1l20.1,34.9l47.3,0.1l23.7-41
			l-19.9-34.6l20.2-34.8L201,586L153.7,585.9z M101,689.6l-16.2-28.2l16.3-28.2l31.3,0l1.8,1l15.7,27.2l-16.3,28.2L101,689.6z
			 M209.6,696.4l-16.3,28.2l-32.6,0l-4.4-7.6l48.9-28.1L209.6,696.4z M198.8,677.7l-48.9,28.1l-5.5-9.5l16.3-28.2l32.6,0
			L198.8,677.7z M209.8,627l-16.3,28.2l-32.6,0l-16.2-28.2l16.3-28.2l32.6,0L209.8,627z"/>
	</g>
</g>
<g class="st0">
	<g>
		<path class="st2" d="M8.4,669.5L-3,689.1l-17.2,0l-8.6,14.9l-22.8,0l-23.7,41l23.6,41L-12,786l20.1,34.9l47.3,0.1l23.7-41
			l-19.9-34.6l20.2-34.8l-23.6-41L8.4,669.5z M-44.2,773.2L-60.5,745l16.3-28.2l31.3,0l1.8,1l15.7,27.2l-16.3,28.2L-44.2,773.2z
			 M64.3,780L48,808.2l-32.6,0l-4.4-7.6L60,772.4L64.3,780z M53.6,761.3L4.7,789.4l-5.5-9.5l16.3-28.2l32.6,0L53.6,761.3z
			 M64.6,710.5l-16.3,28.2l-32.6,0l-16.2-28.2l16.3-28.2l32.6,0L64.6,710.5z"/>
	</g>
</g>
<g class="st0">
	<g>
		<path class="st1" d="M302.6,500.2l-11.4,19.7l-17.2,0l-8.6,14.9l-22.8,0l-23.7,41l23.6,41l39.6,0.1l20.1,34.9l47.3,0.1l23.7-41
			l-19.9-34.6l20.2-34.8l-23.6-41L302.6,500.2z M249.9,603.9l-16.2-28.2l16.3-28.2l31.3,0l1.8,1l15.7,27.2l-16.3,28.2L249.9,603.9z
			 M358.5,610.7l-16.3,28.2l-32.6,0l-4.4-7.6l48.9-28.1L358.5,610.7z M347.8,592l-48.9,28.1l-5.5-9.5l16.3-28.2l32.6,0L347.8,592z
			 M358.8,541.2l-16.3,28.2l-32.6,0l-16.2-28.2L310,513l32.6,0L358.8,541.2z"/>
	</g>
</g>
<g class="st0">
	<g>
		<path class="st1" d="M454.8,412.6l-11.4,19.7l-17.2,0l-8.6,14.9l-22.8,0l-23.7,41l23.6,41l39.6,0.1l20.1,34.9l47.3,0.1l23.7-41
			l-19.9-34.6l20.2-34.8l-23.6-41L454.8,412.6z M402.2,516.3l-16.2-28.2l16.3-28.2l31.3,0l1.8,1l15.7,27.2l-16.3,28.2L402.2,516.3z
			 M510.7,523.1l-16.3,28.2l-32.6,0l-4.4-7.6l48.9-28.1L510.7,523.1z M500,504.4l-48.9,28.1l-5.5-9.5l16.3-28.2l32.6,0L500,504.4z
			 M511,453.6l-16.3,28.2l-32.6,0l-16.2-28.2l16.3-28.2l32.6,0L511,453.6z"/>
	</g>
</g>
<g class="st3">
	<g>
		<path class="st1" d="M203-412.3l-11.4,19.7l-17.2,0l-8.6,14.9l-22.8,0l-23.7,41l23.6,41l39.6,0.1l20.1,34.9l47.3,0.1l23.7-41
			l-19.9-34.6l20.2-34.8l-23.6-41L203-412.3z M150.4-308.6l-16.2-28.2l16.3-28.2l31.3,0l1.8,1l15.7,27.2l-16.3,28.2L150.4-308.6z
			 M258.9-301.7l-16.3,28.2l-32.6,0l-4.4-7.6l48.9-28.1L258.9-301.7z M248.2-320.4l-48.9,28.1l-5.5-9.5l16.3-28.2l32.6,0
			L248.2-320.4z M259.2-371.2L242.9-343l-32.6,0l-16.2-28.2l16.3-28.2l32.6,0L259.2-371.2z"/>
	</g>
</g>
<g class="st3">
	<g>
		<path class="st1" d="M352-498l-11.4,19.7l-17.2,0l-8.6,14.9l-22.8,0l-23.7,41l23.6,41l39.6,0.1l20.1,34.9l47.3,0.1l23.7-41
			l-19.9-34.6l20.2-34.8l-23.6-41L352-498z M299.3-394.3l-16.2-28.2l16.3-28.2l31.3,0l1.8,1l15.7,27.2l-16.3,28.2L299.3-394.3z
			 M407.9-387.5l-16.3,28.2l-32.6,0l-4.4-7.6l48.9-28.1L407.9-387.5z M397.1-406.2L348.2-378l-5.5-9.5l16.3-28.2l32.6,0L397.1-406.2
			z M408.1-456.9l-16.3,28.2l-32.6,0L343-457l16.3-28.2l32.6,0L408.1-456.9z"/>
	</g>
</g>
<g class="st0">
	<g>
		<path class="st1" d="M352.4-326.3L341-306.6l-17.2,0l-8.6,14.9l-22.8,0l-23.7,41l23.6,41l39.6,0.1l20.1,34.9l47.3,0.1l23.7-41
			l-19.9-34.6l20.2-34.8l-23.6-41L352.4-326.3z M299.7-222.6l-16.2-28.2l16.3-28.2l31.3,0l1.8,1l15.7,27.2l-16.3,28.2L299.7-222.6z
			 M408.3-215.7L392-187.6l-32.6,0l-4.4-7.6l48.9-28.1L408.3-215.7z M397.5-234.4l-48.9,28.1l-5.5-9.5l16.3-28.2l32.6,0L397.5-234.4
			z M408.5-285.2L392.2-257l-32.6,0l-16.2-28.2l16.3-28.2l32.6,0L408.5-285.2z"/>
	</g>
</g>
<g class="st3">
	<g>
		<path class="st1" d="M501.3-412l-11.4,19.7l-17.2,0l-8.6,14.9l-22.8,0l-23.7,41l23.6,41l39.6,0.1l20.1,34.9l47.3,0.1l23.7-41
			l-19.9-34.6l20.2-34.8l-23.6-41L501.3-412z M448.6-308.3l-16.2-28.2l16.3-28.2l31.3,0l1.8,1l15.7,27.2l-16.3,28.2L448.6-308.3z
			 M557.2-301.5l-16.3,28.2l-32.6,0l-4.4-7.6l48.9-28.1L557.2-301.5z M546.5-320.2L497.6-292l-5.5-9.5l16.3-28.2l32.6,0L546.5-320.2
			z M557.5-370.9l-16.3,28.2l-32.6,0L492.4-371l16.3-28.2l32.6,0L557.5-370.9z"/>
	</g>
</g>
<g class="st0">
	<g>
		<path class="st1" d="M209.5-244.1l-11.4,19.7l-17.2,0l-8.6,14.9l-22.8,0l-23.7,41l23.6,41l39.6,0.1l20.1,34.9l47.3,0.1l23.7-41
			l-19.9-34.6l20.2-34.8l-23.6-41L209.5-244.1z M156.8-140.3l-16.2-28.2l16.3-28.2l31.3,0l1.8,1l15.7,27.2l-16.3,28.2L156.8-140.3z
			 M265.4-133.5l-16.3,28.2l-32.6,0l-4.4-7.6l48.9-28.1L265.4-133.5z M254.6-152.2l-48.9,28.1l-5.5-9.5l16.3-28.2l32.6,0
			L254.6-152.2z M265.7-203l-16.3,28.2l-32.6,0l-16.2-28.2l16.3-28.2l32.6,0L265.7-203z"/>
	</g>
</g>
<g class="st4">
	<g>
		<path class="st1" d="M352.5-152.6l-11.4,19.7l-17.2,0l-8.6,14.9l-22.8,0l-23.7,41l23.6,41L332-36l20.1,34.9L399.5-1l23.7-41
			l-19.9-34.6l20.2-34.8l-23.6-41L352.5-152.6z M299.8-48.8l-16.2-28.2l16.3-28.2l31.3,0l1.8,1L348.7-77l-16.3,28.2L299.8-48.8z
			 M408.4-42l-16.3,28.2l-32.6,0l-4.4-7.6L404-49.6L408.4-42z M397.6-60.7l-48.9,28.1l-5.5-9.5l16.3-28.2l32.6,0L397.6-60.7z
			 M408.7-111.5l-16.3,28.2l-32.6,0l-16.2-28.2l16.3-28.2l32.6,0L408.7-111.5z"/>
	</g>
</g>
<g class="st0">
	<g>
		<path class="st1" d="M501.4-238.3L490-218.6l-17.2,0l-8.6,14.9l-22.8,0l-23.7,41l23.6,41l39.6,0.1l20.1,34.9l47.3,0.1l23.7-41
			l-19.9-34.6l20.2-34.8l-23.6-41L501.4-238.3z M448.8-134.6l-16.2-28.2l16.3-28.2l31.3,0l1.8,1l15.7,27.2l-16.3,28.2L448.8-134.6z
			 M557.4-127.7L541-99.6l-32.6,0l-4.4-7.6l48.9-28.1L557.4-127.7z M546.6-146.5l-48.9,28.1l-5.5-9.5l16.3-28.2l32.6,0L546.6-146.5z
			 M557.6-197.2L541.3-169l-32.6,0l-16.2-28.2l16.3-28.2l32.6,0L557.6-197.2z"/>
	</g>
</g>
<g class="st0">
	<g>
		<path class="st1" d="M650.4-324L639-304.3l-17.2,0l-8.6,14.9l-22.8,0l-23.7,41l23.6,41l39.6,0.1l20.1,34.9l47.3,0.1l23.7-41
			l-19.9-34.6l20.2-34.8l-23.6-41L650.4-324z M597.7-220.3l-16.2-28.2l16.3-28.2l31.3,0l1.8,1l15.7,27.2l-16.3,28.2L597.7-220.3z
			 M706.3-213.5L690-185.3l-32.6,0L653-193l48.9-28.1L706.3-213.5z M695.5-232.2L646.7-204l-5.5-9.5l16.3-28.2l32.6,0L695.5-232.2z
			 M706.6-282.9l-16.3,28.2l-32.6,0L641.4-283l16.3-28.2l32.6,0L706.6-282.9z"/>
	</g>
</g>
<g class="st4">
	<g>
		<path class="st1" d="M501.8-66.6l-11.4,19.7l-17.2,0L464.6-32l-22.8,0l-23.7,41l23.6,41l39.6,0.1l20.1,34.9l47.3,0.1l23.7-41
			L552.6,9.4l20.2-34.8l-23.6-41L501.8-66.6z M449.2,37.2L432.9,8.9l16.3-28.2l31.3,0l1.8,1L498,9l-16.3,28.2L449.2,37.2z M557.7,44
			l-16.3,28.2l-32.6,0l-4.4-7.6l48.9-28.1L557.7,44z M547,25.3l-48.9,28.1l-5.5-9.5L509,15.7l32.6,0L547,25.3z M558-25.5L541.7,2.7
			l-32.6,0l-16.2-28.2l16.3-28.2l32.6,0L558-25.5z"/>
	</g>
</g>
<g class="st4">
	<g>
		<path class="st1" d="M356.6,17l-11.4,19.7l-17.2,0l-8.6,14.9l-22.8,0l-23.7,41l23.6,41l39.6,0.1l20.1,34.9l47.3,0.1l23.7-41
			L407.4,93l20.2-34.8l-23.6-41L356.6,17z M303.9,120.7l-16.2-28.2L304,64.4l31.3,0l1.8,1l15.7,27.2l-16.3,28.2L303.9,120.7z
			 M412.5,127.6l-16.3,28.2l-32.6,0l-4.4-7.6l48.9-28.1L412.5,127.6z M401.7,108.9L352.9,137l-5.5-9.5l16.3-28.2l32.6,0L401.7,108.9
			z M412.8,58.1l-16.3,28.2l-32.6,0L347.7,58L364,29.8l32.6,0L412.8,58.1z"/>
	</g>
</g>
<g class="st0">
	<g>
		<path class="st1" d="M650.8-152.3l-11.4,19.7l-17.2,0l-8.6,14.9l-22.8,0l-23.7,41l23.6,41l39.6,0.1l20.1,34.9l47.3,0.1l23.7-41
			l-19.9-34.6l20.2-34.8l-23.6-41L650.8-152.3z M598.1-48.6l-16.2-28.2l16.3-28.2l31.3,0l1.8,1L647-76.7l-16.3,28.2L598.1-48.6z
			 M706.7-41.7l-16.3,28.2l-32.6,0l-4.4-7.6l48.9-28.1L706.7-41.7z M695.9-60.4L647-32.3l-5.5-9.5L657.9-70l32.6,0L695.9-60.4z
			 M706.9-111.2L690.6-83l-32.6,0l-16.2-28.2l16.3-28.2l32.6,0L706.9-111.2z"/>
	</g>
</g>
<g class="st0">
	<g>
		<path class="st1" d="M803-239.9l-11.4,19.7l-17.2,0l-8.6,14.9l-22.8,0l-23.7,41l23.6,41l39.6,0.1l20.1,34.9l47.3,0.1l23.7-41
			l-19.9-34.6l20.2-34.8l-23.6-41L803-239.9z M750.3-136.2l-16.2-28.2l16.3-28.2l31.3,0l1.8,1l15.7,27.2l-16.3,28.2L750.3-136.2z
			 M858.9-129.3l-16.3,28.2l-32.6,0l-4.4-7.6l48.9-28.1L858.9-129.3z M848.1-148l-48.9,28.1l-5.5-9.5l16.3-28.2l32.6,0L848.1-148z
			 M859.2-198.8l-16.3,28.2l-32.6,0l-16.2-28.2l16.3-28.2l32.6,0L859.2-198.8z"/>
	</g>
</g>
</svg>
