<svg width="161" height="149" viewBox="0 0 161 149" fill="none" xmlns="http://www.w3.org/2000/svg">
<g clip-path="url(#clip0_49_459)">
<path d="M157.764 64.7251H144.343C142.46 64.7251 140.842 66.3102 140.842 68.1595V81.3687C140.842 83.218 142.46 84.8031 144.343 84.8031H147.552C145.934 100.654 132.248 112.807 115.883 112.807C99.5176 112.807 85.8313 100.39 84.2133 84.8031H87.1575C89.0407 84.8031 90.6587 83.218 90.6587 81.3687V68.1595C90.6587 66.3102 89.0407 64.7251 87.1575 64.7251H83.6563C82.5954 53.101 76.1501 42.7978 67.0259 36.7216H77.211C79.0942 36.7216 80.7122 35.1365 80.7122 33.2872C80.7122 31.4379 79.0942 29.8528 77.211 29.8528H13.4211C11.5379 29.8528 9.91994 31.4379 9.91994 33.2872C9.91994 35.1365 11.5379 36.7216 13.4211 36.7216H23.6063C14.2168 43.062 8.03674 53.101 6.97579 64.7251H3.47463C1.59144 64.7251 -0.0265198 66.3102 -0.0265198 68.1595V81.3687C-0.0265198 83.218 1.59144 84.8031 3.47463 84.8031H16.8957C18.7789 84.8031 20.3969 83.218 20.3969 81.3687V68.1595C20.3969 66.3102 18.7789 64.7251 16.8957 64.7251H13.6863C15.3043 48.8741 28.9906 36.7216 45.3559 36.7216C61.7211 36.7216 75.4074 49.1382 77.0254 64.7251H73.816C71.9328 64.7251 70.3148 66.3102 70.3148 68.1595V81.3687C70.3148 83.218 71.9328 84.8031 73.816 84.8031H77.2906C78.3781 96.4272 84.7969 106.73 93.9211 112.807H83.7359C81.8527 112.807 80.2613 114.392 80.2613 116.241C80.2613 118.09 81.8792 119.675 83.7359 119.675H147.605C149.489 119.675 151.107 118.09 151.107 116.241C151.107 114.392 149.489 112.807 147.605 112.807H137.42C146.81 106.466 152.99 96.4272 154.051 84.8031H157.552C159.435 84.8031 161.027 83.218 161.027 81.3687V68.1595C161.027 66.046 159.409 64.7251 157.817 64.7251H157.764ZM13.4211 77.9343H6.71055V71.3297H13.4211V77.9343ZM83.7094 71.3297V77.9343H76.9989V71.3297H83.7094ZM154.289 77.9343H147.579V71.3297H154.289V77.9343Z" fill="white"/>
<path d="M87.2105 24.0408C87.4758 25.6259 88.5633 26.6826 90.1547 26.9468L116.732 30.6454L120.498 56.7997C120.763 58.3848 121.851 59.4415 123.442 59.7057C125.06 59.9699 126.386 58.9131 126.943 57.5922L143.574 8.45392C143.839 7.39718 143.574 6.07626 142.778 5.01952C141.982 4.22697 140.63 3.6986 139.303 4.22697L89.3855 20.6064C88.0328 20.8706 87.2371 22.4557 87.2371 24.0408H87.2105ZM134.98 12.4167L125.06 42.0053L122.912 27.211C122.646 25.6259 121.559 24.5692 119.968 24.305L104.955 22.1915L135.007 12.4167H134.98Z" fill="white"/>
<path d="M20.1316 20.078C25.7547 20.078 30.3168 15.5869 30.3168 10.039C30.3168 4.49113 25.7547 0 20.1316 0C14.5086 0 9.94647 4.49113 9.94647 10.039C9.94647 15.5869 14.5086 20.078 20.1316 20.078ZM20.1316 6.86879C22.0148 6.86879 23.6328 8.4539 23.6328 10.3032C23.6328 12.1525 22.0148 13.7376 20.1316 13.7376C18.2484 13.7376 16.657 12.1525 16.657 10.3032C16.657 8.18972 18.275 6.86879 20.1316 6.86879Z" fill="white"/>
<path d="M110.817 69.4805C105.194 69.4805 100.632 73.9716 100.632 79.5195C100.632 85.0674 105.194 89.5585 110.817 89.5585C116.44 89.5585 121.002 85.0674 121.002 79.5195C121.002 73.9716 116.175 69.4805 110.817 69.4805ZM110.817 82.6897C108.934 82.6897 107.316 81.1046 107.316 79.2553C107.316 77.406 108.934 75.8209 110.817 75.8209C112.7 75.8209 114.291 77.406 114.291 79.2553C114.291 81.1046 112.408 82.6897 110.817 82.6897Z" fill="white"/>
<path d="M108.934 125.752C102.488 125.752 97.1305 131.035 97.1305 137.376C97.1305 143.716 102.488 149 108.934 149C115.379 149 120.737 143.716 120.737 137.376C120.737 131.035 115.379 125.752 108.934 125.752ZM108.934 142.131C106.255 142.131 103.841 140.018 103.841 137.112C103.841 134.206 105.989 132.092 108.934 132.092C111.613 132.092 114.026 134.206 114.026 137.112C114.026 140.018 111.878 142.131 108.934 142.131Z" fill="white"/>
<path d="M83.7094 0C85.6456 0 87.2106 1.53227 87.2106 3.4344C87.2106 5.33652 85.6456 6.86879 83.7094 6.86879C81.7732 6.86879 80.2348 5.33652 80.2348 3.4344C80.2348 1.53227 81.7997 0 83.7094 0Z" fill="white"/>
<path d="M43.4726 13.2092C45.4089 13.2092 46.9738 14.7415 46.9738 16.6436C46.9738 18.5458 45.4089 20.078 43.4726 20.078C41.5364 20.078 39.998 18.5458 39.998 16.6436C39.998 14.7415 41.5629 13.2092 43.4726 13.2092Z" fill="white"/>
<path d="M93.9211 43.062C95.8573 43.062 97.3957 44.5943 97.3957 46.4964C97.3957 48.3985 95.8308 49.9308 93.9211 49.9308C92.0114 49.9308 90.4199 48.3985 90.4199 46.4964C90.4199 44.5943 91.9848 43.062 93.9211 43.062Z" fill="white"/>
<path d="M134.158 128.922C136.094 128.922 137.632 130.454 137.632 132.356C137.632 134.259 136.068 135.791 134.158 135.791C132.248 135.791 130.657 134.259 130.657 132.356C130.657 130.454 132.222 128.922 134.158 128.922Z" fill="white"/>
<path d="M80.5 125.488C82.4363 125.488 84.0012 127.02 84.0012 128.922C84.0012 130.824 82.4363 132.356 80.5 132.356C78.5638 132.356 77.0254 130.824 77.0254 128.922C77.0254 127.02 78.5903 125.488 80.5 125.488Z" fill="white"/>
<path d="M40.2367 72.6508C42.173 72.6508 43.7379 74.183 43.7379 76.0852C43.7379 77.9873 42.173 79.5196 40.2367 79.5196C38.3005 79.5196 36.7621 77.9873 36.7621 76.0852C36.7621 74.183 38.327 72.6508 40.2367 72.6508Z" fill="white"/>
<path d="M67.0789 92.2003V91.4078C67.0789 91.2316 66.9905 91.1436 66.8137 91.1436C66.6368 91.1436 66.5484 91.0555 66.5484 90.8794C66.5484 90.8794 66.5484 90.6152 66.2832 90.6152L65.7527 90.0868H65.4875L65.2222 89.8227C65.2222 89.8227 64.957 89.8227 64.957 89.5585H63.896C15.3308 89.5585 16.6835 89.5585 15.8613 89.8227H15.596C15.3308 89.8227 15.596 89.8226 15.3308 90.0868C15.0656 90.0868 15.3308 90.0868 15.0656 90.351C15.0656 90.351 14.8003 90.351 14.8003 90.6152L14.5351 90.8794L14.2698 91.1436C14.2698 91.1436 14.2698 91.4078 14.0046 91.4078V91.9361C14.0046 92.4645 14.0046 89.2943 14.0046 138.697V140.018C14.0046 140.194 14.093 140.282 14.2698 140.282C14.2698 140.458 14.3583 140.546 14.5351 140.546C14.5351 140.546 14.5351 140.81 14.8003 140.81L15.0656 141.074C15.3308 141.074 15.0656 141.074 15.3308 141.339C15.596 141.339 15.3308 141.339 15.596 141.603H16.9488C66.3097 141.603 64.1613 141.603 64.9835 141.339H65.2488C65.2488 141.339 65.514 141.339 65.514 141.074L65.7792 140.81L66.0445 140.546C66.0445 140.546 66.3097 140.546 66.3097 140.282C66.3097 140.282 66.3097 140.018 66.575 140.018L66.8402 139.754L67.1054 139.489C67.1054 139.489 67.1054 139.225 67.3707 139.225V91.9361C67.1054 92.4645 67.1054 92.2003 67.1054 92.2003H67.0789ZM20.1316 100.654L35.4359 115.713L20.1316 131.035V100.654ZM24.959 95.8989H55.8063L40.502 110.957L24.9324 95.8989H24.959ZM40.2633 120.468L55.5675 135.527H24.9855L40.2898 120.468H40.2633ZM45.0906 115.713L60.3949 100.654V131.035L45.0906 115.713Z" fill="white"/>
</g>
<defs>
<clipPath id="clip0_49_459">
<rect width="161" height="149" fill="white"/>
</clipPath>
</defs>
</svg>
