<svg width="161" height="157" viewBox="0 0 161 157" fill="none" xmlns="http://www.w3.org/2000/svg">
<g clip-path="url(#clip0_49_422)">
<path d="M68.2069 69.2492C66.8586 67.9277 64.7437 67.9277 63.3954 69.2492L56.7069 75.857C55.3586 77.1785 55.3586 79.293 56.7069 80.6145L63.3954 87.2223C64.7437 88.5438 66.8586 88.5438 68.2069 87.2223C69.5552 85.9007 69.5552 83.7863 68.2069 82.4647L63.9241 78.2357L68.2069 74.0068C69.5552 72.6852 69.5552 70.5708 68.2069 69.2492Z" fill="white"/>
<path d="M90.3874 69.2492C89.0391 70.5708 89.0391 72.6852 90.3874 74.0068L94.6701 78.2357L90.3874 82.4647C89.0391 83.7863 89.0391 85.9007 90.3874 87.2223C91.7356 88.5438 93.877 88.5438 95.1989 87.2223L101.887 80.6145C103.236 79.293 103.236 77.1785 101.887 75.857L95.1989 69.2492C93.8506 67.9277 91.7356 67.9277 90.3874 69.2492Z" fill="white"/>
<path d="M83.6989 65.2845C81.8218 64.7559 79.9448 65.5489 79.4161 67.399L72.7276 87.2223C72.1989 89.0724 72.992 90.9226 74.869 91.4512C76.746 91.9798 78.623 91.1869 79.1517 89.3367L85.8402 69.5135C86.369 67.6633 85.5759 65.8132 83.6989 65.2845Z" fill="white"/>
<path d="M155.924 67.9276L136.123 63.6987C134.775 58.6768 132.66 53.6549 129.963 49.1616L140.67 32.2458C141.463 30.9242 141.199 29.3384 140.141 28.0168L129.99 17.9731C128.932 16.9158 127.055 16.6515 125.707 17.4444L108.602 28.0168C104.055 25.3737 98.9793 23.2593 93.9035 21.9377L89.8851 2.6431C89.6207 1.05724 88.2724 0 86.6862 0H72.2517C70.6391 0 69.3172 1.05724 69.0529 2.6431L64.7701 22.202C59.4299 23.5236 54.6184 25.638 50.0713 28.2811L32.9667 17.7088C31.6184 16.9158 30.0322 17.1801 28.6839 18.2374L18.5322 28.2811C17.4747 29.3384 17.1839 31.1886 18.0035 32.5101L28.7104 49.4259C26.0402 53.9192 23.8989 58.9411 22.5506 63.963L2.74943 68.1919C1.13679 68.4562 0.0793152 69.7778 0.0793152 71.3636V85.6364C0.0793152 87.2222 1.13679 88.5438 2.74943 88.8081L22.5506 93.037C23.8989 98.0589 26.0402 103.081 28.7104 107.574L17.7391 124.49C16.946 125.811 17.2103 127.397 18.2678 128.719L28.4195 138.763C29.477 139.82 31.354 140.084 32.7023 139.291L49.8069 128.719C54.354 131.362 59.4299 133.476 64.5058 134.798L67.9954 150.128H17.1046C15.2276 150.128 13.6149 151.714 13.6149 153.564C13.6149 155.414 15.2276 157 17.1046 157H140.934C142.812 157 144.398 155.414 144.398 153.564C144.398 151.714 142.785 150.128 140.934 150.128H90.6517L94.1414 134.798C99.2173 133.476 104.293 131.362 108.84 128.719L125.945 139.291C127.293 140.084 128.879 139.82 130.228 138.763L140.379 128.719C141.437 127.662 141.728 125.811 140.908 124.49L130.201 107.574C132.871 103.081 135.013 98.0589 136.361 93.037L156.162 88.8081C157.775 88.5438 158.832 87.2222 158.832 85.6364V71.3636C158.568 69.5135 157.484 68.1919 155.898 67.9276H155.924ZM151.906 82.729L132.66 86.9579C131.312 87.2222 130.518 88.2795 130.254 89.3367C128.906 95.1515 126.791 100.702 123.301 105.724C122.508 106.781 122.508 108.103 123.301 109.16L133.717 125.547L127.293 132.155L110.717 121.847C109.66 121.054 108.312 121.054 107.254 121.847C102.178 125.019 96.5471 127.397 90.6782 128.719C89.3299 128.983 88.5368 130.04 88.2724 131.098L83.9897 149.864H74.8954L70.6126 131.098C70.3483 129.776 69.2644 128.983 68.2069 128.719C62.3115 127.397 56.7069 125.283 51.631 121.847C50.5736 121.054 49.2253 121.054 48.1678 121.847L31.592 132.155L25.1678 125.811L35.6104 109.424C36.4035 108.367 36.4035 107.045 35.6104 105.988C32.4115 100.966 30.0058 95.4158 28.6575 89.601C28.3931 88.2795 27.3092 87.4865 26.2517 87.2222L7.27012 82.9933V74.0067L26.2517 69.7778C27.6 69.5135 28.3931 68.4562 28.6575 67.399C30.0058 61.5842 32.1471 56.0337 35.6104 51.0118C36.4035 49.9545 36.4035 48.633 35.6104 47.5758L25.1678 31.1886L31.592 24.8451L48.1678 35.1532C49.2253 35.9461 50.5736 35.9461 51.631 35.1532C56.7069 31.9815 62.3379 29.6027 68.2069 28.2811C69.5552 28.0168 70.3483 26.9596 70.6126 25.9024L74.8954 7.13636H83.9897L88.2724 25.9024C88.5368 27.2239 89.6207 28.0168 90.6782 28.2811C96.5736 29.6027 102.178 31.9815 107.254 35.1532C108.312 35.9461 109.66 35.9461 110.717 35.1532L127.293 24.8451L133.717 31.1886L123.301 47.5758C122.508 48.633 122.508 49.9545 123.301 51.0118C126.5 56.0337 128.906 61.5842 130.254 67.399C130.518 68.7205 131.602 69.5135 132.66 69.7778L151.641 74.0067L151.906 82.729Z" fill="white"/>
<path d="M79.4161 34.0959C54.8035 34.0959 34.7644 53.9192 34.7644 78.2357C34.7644 102.552 54.8299 122.375 79.4161 122.375C104.002 122.375 124.068 102.552 124.068 78.2357C124.068 53.9192 104.002 34.0959 79.4161 34.0959ZM79.4161 115.768C58.5575 115.768 41.4529 98.8518 41.4529 78.2357C41.4529 57.6195 58.5575 40.7037 79.4161 40.7037C100.275 40.7037 117.379 57.6195 117.379 78.2357C117.379 98.8518 100.275 115.768 79.4161 115.768Z" fill="white"/>
<path d="M79.4161 44.9326C60.6989 44.9326 45.7092 59.9983 45.7092 78.2356C45.7092 96.473 60.9632 111.539 79.4161 111.539C97.869 111.539 113.123 96.473 113.123 78.2356C113.123 59.9983 97.869 44.9326 79.4161 44.9326ZM79.4161 104.931C64.4264 104.931 52.3977 93.037 52.3977 78.2356C52.3977 63.4343 64.4264 51.5404 79.4161 51.5404C94.4057 51.5404 106.434 63.4343 106.434 78.2356C106.434 93.037 94.1414 104.931 79.4161 104.931Z" fill="white"/>
<path d="M20.5943 110.217C20.5943 104.667 16.0471 100.173 10.4425 100.173C4.83794 100.173 0.264374 104.667 0.264374 110.217C0.264374 115.768 4.8115 120.261 10.4161 120.261C16.0207 120.261 20.5678 115.768 20.5678 110.217H20.5943ZM10.4425 113.653C8.56552 113.653 6.97932 112.067 6.97932 110.217C6.97932 108.367 8.59196 106.781 10.4425 106.781C12.2931 106.781 13.9322 108.367 13.9322 110.217C13.9322 112.067 12.3195 113.653 10.4425 113.653Z" fill="white"/>
<path d="M150.822 54.1835C156.426 54.1835 160.974 49.6902 160.974 44.1397C160.974 38.5892 156.426 34.0959 150.822 34.0959C145.217 34.0959 140.67 38.5892 140.67 44.1397C140.67 49.6902 145.217 54.1835 150.822 54.1835ZM150.822 40.968C152.699 40.968 154.285 42.5539 154.285 44.404C154.285 46.2542 152.672 47.8401 150.822 47.8401C148.971 47.8401 147.332 46.2542 147.332 44.404C147.597 42.2895 148.945 40.968 150.822 40.968Z" fill="white"/>
<path d="M47.3218 14.5371C49.1988 14.5371 50.8115 12.9512 50.8115 11.1011C50.8115 9.2509 49.1988 7.66504 47.3218 7.66504C45.4448 7.66504 43.8586 9.2509 43.8586 11.1011C43.8586 12.9512 45.4713 14.5371 47.3218 14.5371Z" fill="white"/>
<path d="M10.4161 47.5758C12.2931 47.5758 13.9058 45.9899 13.9058 44.1398C13.9058 42.2896 12.2931 40.7037 10.4161 40.7037C8.53909 40.7037 6.95288 42.2896 6.95288 44.1398C6.95288 45.9899 8.56552 47.5758 10.4161 47.5758Z" fill="white"/>
<path d="M144.133 103.609C142.256 103.609 140.67 105.195 140.67 107.045C140.67 108.896 142.283 110.481 144.133 110.481C145.984 110.481 147.623 108.896 147.623 107.045C147.623 105.195 146.01 103.609 144.133 103.609Z" fill="white"/>
<path d="M104.029 140.084C104.029 141.934 105.641 143.52 107.492 143.52C109.343 143.52 110.982 141.934 110.982 140.084C110.982 138.234 109.369 136.648 107.492 136.648C105.615 136.648 104.029 138.234 104.029 140.084Z" fill="white"/>
<path d="M150.822 149.864C148.945 149.864 147.332 151.45 147.332 153.3C147.332 155.15 148.945 156.736 150.822 156.736C152.699 156.736 154.285 155.15 154.285 153.3C154.285 151.45 152.672 149.864 150.822 149.864Z" fill="white"/>
<path d="M7.21726 149.864C5.34024 149.864 3.7276 151.45 3.7276 153.3C3.7276 155.15 5.34024 156.736 7.21726 156.736C9.09427 156.736 10.7069 155.15 10.7069 153.3C10.4425 151.45 9.09427 149.864 7.21726 149.864Z" fill="white"/>
</g>
<defs>
<clipPath id="clip0_49_422">
<rect width="161" height="157" fill="white"/>
</clipPath>
</defs>
</svg>
