<svg width="161" height="161" viewBox="0 0 161 161" fill="none" xmlns="http://www.w3.org/2000/svg">
<g clip-path="url(#clip0_49_440)">
<path d="M69.4162 43.7152C71.2966 43.4486 72.6208 41.8493 72.356 39.9834C72.0911 38.1175 70.4756 36.7847 68.5952 37.0513C66.7147 37.3179 65.3905 38.9172 65.6554 40.7831C65.9202 42.3824 67.5358 43.7152 69.4162 43.7152Z" fill="white"/>
<path d="M68.6216 143.674C66.7412 143.94 65.417 145.54 65.6819 147.406C65.9467 149.272 67.5623 150.604 69.4427 150.338C71.3231 150.071 72.6473 148.472 72.3825 146.606C72.1176 144.74 70.5021 143.407 68.6216 143.674Z" fill="white"/>
<path d="M104.8 58.3759C106.15 59.4421 108.269 59.4421 109.62 57.8427C110.706 56.51 110.706 54.3775 109.09 53.0447C107.739 51.9785 105.594 51.9785 104.27 53.5778C103.184 55.1772 103.475 57.3096 104.8 58.3759Z" fill="white"/>
<path d="M33.2647 128.747C31.914 127.68 29.7687 127.68 28.4445 129.28C27.3586 130.613 27.3586 132.745 28.9742 134.078C30.3249 135.144 32.4437 135.144 33.7944 133.545C34.8802 131.945 34.5889 129.813 33.2647 128.747Z" fill="white"/>
<path d="M15.0433 90.3626C13.1629 90.6291 11.8386 92.2285 12.1035 94.0944C12.3683 95.9603 13.9839 97.293 15.8643 97.0265C17.7447 96.7599 19.0689 95.1606 18.8041 93.2947C18.5392 91.4288 16.9237 90.096 15.0433 90.3626Z" fill="white"/>
<path d="M109.064 128.747C107.713 127.68 105.568 127.68 104.243 129.28C103.158 130.613 103.158 132.745 104.773 134.078C106.124 135.144 108.243 135.144 109.593 133.545C110.679 131.945 110.388 129.813 109.064 128.747Z" fill="white"/>
<path d="M28.9742 58.3759C30.3249 59.4421 32.4437 59.4421 33.7944 57.8427C34.8802 56.51 34.8802 54.3775 33.2647 53.0447C31.914 51.9785 29.7687 51.9785 28.4445 53.5778C27.3586 55.1772 27.6499 57.3096 28.9742 58.3759Z" fill="white"/>
<path d="M133.986 33.586C139.6 33.586 144.156 29.0546 144.156 23.4569C144.156 17.8592 139.6 13.3278 133.986 13.3278C128.371 13.3278 123.816 17.8592 123.816 23.4569C123.816 29.0546 128.371 33.586 133.986 33.586ZM133.986 20.2582C135.866 20.2582 137.455 21.8576 137.455 23.7235C137.455 25.5893 135.84 27.1887 133.986 27.1887C132.132 27.1887 130.49 25.5893 130.49 23.7235C130.755 21.8576 132.105 20.2582 133.986 20.2582Z" fill="white"/>
<path d="M11.8121 20.2583C16.3675 20.2583 20.1283 16.5265 20.1283 11.9951C20.1283 7.4636 16.3675 3.73181 11.8121 3.73181C7.25678 3.73181 3.49596 7.4636 3.49596 11.9951C3.23112 16.5265 7.25678 20.2583 11.8121 20.2583ZM11.8121 10.3957C12.6067 10.3957 13.4277 11.1954 13.4277 11.9951C13.4277 12.7947 12.6332 13.5944 11.8121 13.5944C10.9911 13.5944 10.1966 12.7947 10.1966 11.9951C9.93173 10.9288 10.7263 10.3957 11.8121 10.3957Z" fill="white"/>
<path d="M142.302 123.682C137.747 123.682 133.986 127.414 133.986 131.945C133.986 136.477 137.747 140.209 142.302 140.209C146.857 140.209 150.618 136.477 150.618 131.945C150.883 127.414 146.857 123.682 142.302 123.682ZM142.302 133.545C141.507 133.545 140.686 132.745 140.686 131.945C140.686 131.146 141.481 130.346 142.302 130.346C143.123 130.346 143.917 131.146 143.917 131.945C144.182 132.745 143.388 133.545 142.302 133.545Z" fill="white"/>
<path d="M3.7873 40.25C5.6677 39.9834 6.99194 38.3841 6.72709 36.5182C6.46224 34.6523 4.84668 33.3195 2.96627 33.5861C1.08587 33.8526 -0.238365 35.452 0.0264813 37.3179C0.291327 39.1838 1.90689 40.5166 3.7873 40.25Z" fill="white"/>
<path d="M9.66688 140.209C7.78647 140.475 6.46224 142.075 6.72709 143.94C6.99193 145.806 8.6075 147.139 10.4879 146.873C12.3683 146.606 13.6925 145.007 13.4277 143.141C13.1629 141.275 11.5473 139.942 9.66688 140.209Z" fill="white"/>
<path d="M126.755 143.674C124.875 143.94 123.551 145.54 123.816 147.406C124.08 149.272 125.696 150.604 127.576 150.338C129.457 150.071 130.781 148.472 130.516 146.606C130.251 144.74 128.371 143.407 126.755 143.674Z" fill="white"/>
<path d="M140.421 50.3792C138.541 50.6457 137.217 52.2451 137.482 54.111C137.746 55.9769 139.362 57.3096 141.242 57.0431C143.123 56.7765 144.447 55.1772 144.182 53.3113C143.917 51.4454 142.302 50.1126 140.421 50.3792Z" fill="white"/>
<path d="M157.557 93.5613L160.497 84.4983C161.291 82.3659 159.702 80.2334 157.292 80.2334H147.122C145.798 80.2334 144.447 81.0331 143.917 82.6324L141.242 90.3626H137.217C136.422 71.7036 128.106 54.9106 115.261 42.9156L116.877 40.25C119.552 35.452 117.936 29.3212 113.116 26.6556C108.296 23.9901 102.125 25.5894 99.4497 30.3874L98.92 31.4536C94.0998 29.0546 88.7499 27.1887 83.3736 26.1225V20.2583H87.1344C92.7491 20.2583 97.3045 15.7268 97.3045 10.1291C97.3045 4.53146 92.7491 0 87.1344 0H50.1619C44.5471 0 39.9918 4.53146 39.9918 10.1291C39.9918 15.7268 44.5471 20.2583 50.1619 20.2583H54.4524V26.1225C49.1025 27.1887 43.7261 29.0546 38.9059 31.4536L38.1114 30.1209C35.4364 25.3228 29.2655 23.7235 24.4453 26.3891C19.6251 29.0546 18.0095 35.1854 20.6845 39.9834L22.3 42.649C8.6075 55.1772 0.291328 73.0364 0.291328 92.7616C0.291328 130.346 31.0929 161 68.8865 161C106.68 161 135.336 132.478 137.482 96.7599H141.507L144.182 104.49C144.712 105.823 145.798 106.889 147.387 106.889H157.557C159.967 106.889 161.583 104.757 160.762 102.624L157.557 93.5613ZM149.797 86.8973H152.737L151.651 90.3626H148.711L149.771 86.8973H149.797ZM105.594 33.5861C106.389 31.9868 108.534 31.4536 110.15 32.2533C111.765 33.053 112.295 35.1854 111.5 36.7848L110.706 38.3841C108.825 37.0513 106.945 35.7185 105.091 34.6523L105.621 33.5861H105.594ZM46.9307 10.3957C46.9307 8.5298 48.5463 6.93046 50.4267 6.93046H87.1344C89.0148 6.93046 90.6304 8.5298 90.6304 10.3957C90.6304 12.2616 89.0148 13.8609 87.1344 13.8609H50.1619C48.5463 13.5944 46.9572 11.995 46.9572 10.3957H46.9307ZM61.3913 20.2583H76.9378V25.0563C71.8528 24.5232 66.7677 24.5232 61.3913 25.0563V20.2583ZM26.8289 36.7848C26.0344 35.1854 26.5641 33.053 28.1796 32.2533C29.7952 31.4536 31.9404 31.9868 32.735 33.5861L33.5295 34.6523C31.6491 35.7185 29.7687 37.0513 27.9148 38.3841L26.8554 36.7848H26.8289ZM68.8865 154.603C34.5889 154.603 6.99194 126.881 6.99194 93.0281C6.99194 59.1755 34.8538 31.4536 68.8865 31.4536C102.919 31.4536 129.43 57.5762 130.781 90.3626H113.91C112.56 66.9056 92.7491 47.9801 68.8865 47.9801C45.0238 47.9801 23.5978 68.2384 23.5978 93.0281C23.5978 117.818 43.9645 138.076 68.8865 138.076C92.4578 138.076 112.03 119.95 113.91 97.0265H130.781C128.901 129.013 101.833 154.603 68.8865 154.603ZM100.774 90.3626C99.4232 74.1027 85.7572 61.3079 69.1513 61.3079C52.5455 61.3079 37.2639 75.4354 37.2639 93.0281C37.2639 110.621 51.4596 124.748 69.1513 124.748C85.2275 124.748 98.6287 112.753 100.774 97.0265H107.475C105.594 116.219 88.9883 131.412 69.1513 131.412C47.9901 131.412 30.5632 114.353 30.5632 93.0281C30.5632 71.7036 47.6988 54.644 69.1513 54.644C90.6039 54.644 106.124 70.3709 107.475 90.3626H100.774ZM87.1079 90.3626C85.7572 81.5662 77.9972 74.6358 68.8865 74.6358C58.7164 74.6358 50.4002 82.899 50.4002 93.0281C50.4002 103.157 58.7164 111.421 68.8865 111.421C77.7324 111.421 84.9627 105.29 86.8431 97.0265H93.5437C91.6633 109.022 81.2283 118.084 68.6216 118.084C54.6907 118.084 43.4348 106.889 43.4348 93.0281C43.4348 79.1672 54.6907 67.9719 68.6216 67.9719C81.4932 67.9719 92.1929 77.8344 93.5437 90.3626H87.1079ZM70.2372 97.0265H79.8776C78.262 101.558 73.9715 104.757 68.8865 104.757C62.4507 104.757 57.1008 99.4255 57.1008 93.0281C57.1008 86.6308 62.4507 81.2997 68.8865 81.2997C74.5012 81.2997 79.0566 85.0315 80.4073 90.3626H70.2372C68.3568 90.3626 66.7412 91.9619 66.7412 93.8278C67.0061 95.4272 68.6216 97.0265 70.2372 97.0265ZM149.797 100.225L148.738 97.0265H151.677L152.763 100.492H149.823V100.225H149.797Z" fill="white"/>
</g>
<defs>
<clipPath id="clip0_49_440">
<rect width="161" height="161" fill="white"/>
</clipPath>
</defs>
</svg>
