<svg width="103" height="106" viewBox="0 0 103 106" fill="none" xmlns="http://www.w3.org/2000/svg">
<path d="M102.645 16.0673L74.8136 0L51.2864 13.5568L27.8309 0L0 16.0673V48.202L23.312 61.6871V89.016L51.1429 105.083L78.9739 89.016V61.9023L102.645 48.202V16.0673ZM70.2947 69.3622H31.9912V61.9023L51.1429 50.856L70.2947 61.9023V69.3622ZM8.67924 21.0884L27.8309 10.0421L46.9827 21.0884V43.181L27.8309 54.2273L8.67924 43.181V21.0884ZM51.1429 95.0412L31.9912 83.9949V78.0414H70.2947V83.9949L51.1429 95.0412ZM93.9653 43.181L74.8136 54.2273L55.6619 43.181V21.0884L74.8136 10.0421L93.9653 21.0884V43.181Z" fill="white"/>
<path d="M63.1935 15.5V8.751L51.3582 1.86499L39.5228 8.751V15.5L51.3582 20.5L63.1935 15.5Z" fill="white"/>
</svg>
