<?xml version="1.0" encoding="utf-8"?>
<!-- Generator: Adobe Illustrator 27.2.0, SVG Export Plug-In . SVG Version: 6.00 Build 0)  -->
<svg version="1.1" id="Capa_1" xmlns="http://www.w3.org/2000/svg" xmlns:xlink="http://www.w3.org/1999/xlink" x="0px" y="0px"
	 viewBox="0 0 567.2 322.7" style="enable-background:new 0 0 567.2 322.7;" xml:space="preserve">
<style type="text/css">
	.st0{fill:#20201D;}
	.st1{fill:none;stroke:#20201D;stroke-linecap:round;stroke-linejoin:round;stroke-miterlimit:10;}
	.st2{opacity:5.000000e-02;fill:#20201D;}
	.st3{fill:#FFFFFF;}
	.st4{fill:none;stroke:#20201D;stroke-width:0.5418;stroke-miterlimit:10;}
</style>
<g>
	<g>
		<path class="st0" d="M417.1,236.2c1.4,1.4,0.9,3.3-1.1,3.4c-1.9-0.1-4.1-0.3-5.2-2.1c-0.7-1.3,0.9-2.4,2-2.5
			C414.3,234.7,416.1,235.2,417.1,236.2L417.1,236.2z M417.1,236.3c-1.1-1.1-2.8-1-4.2-0.8c-1.6,0.4-2.6,1.4-1.2,2.8
			c1,1.1,2.8,1.1,4.2,1C417.6,239.1,418.3,237.5,417.1,236.3L417.1,236.3z"/>
		<path class="st0" d="M410,234.2c-0.8,0-1.5,0.5-1.7,1.4c-0.2,0.7,0.1,1.5,0.6,2c0.4,0.3,1.1,0.6,1.6,0.4c0.5-0.1,0.5-0.5,0.4-1
			c0-0.3,0-0.6,0.2-0.8c0.1-0.2,0.5-0.3,0.5-0.5c0-0.2-0.1-0.5-0.3-0.7C411.1,234.4,410.6,234.2,410,234.2z"/>
		<path class="st0" d="M415.7,235.4c-1.1,0.9-1.6,2.5-1.4,3.9c-0.4,0.1-0.9,0.1-1.2-0.2c-0.2-0.2-0.2-0.5-0.2-0.7
			c-0.1-1.2,0.6-2.5,1.6-3.2L415.7,235.4z"/>
		<path class="st0" d="M417.7,238.3c-0.2,0.5-0.6,0.8-1.1,1c-0.2-0.7-0.2-1.4,0.1-2.1c0.1-0.2,0.2-0.3,0.3-0.4
			C417.8,236.3,417.8,238,417.7,238.3z"/>
	</g>
	<path class="st0" d="M407.7,237.2c-1.8,1.1-1.5,3.6,0.8,2.8c1.5-0.8,2.5-2.5,2.7-4.2c0.2-1.2-0.1-2.3-0.1-3.6
		c0-1.1,0.8-3.1,2.3-2.5c1.5,1.1-0.3,5-1.5,5.9c-0.3,0.2-0.6,0.3-0.9,0.3C409.8,236,408.7,236.5,407.7,237.2L407.7,237.2z
		 M407.7,237.1c0.7-0.5,1.5-0.9,2.4-1.2c0.5-0.2,1.2-0.1,1.6-0.5c1-1,1.5-2.4,1.8-3.8c0.1-0.6,0.1-1.2-0.2-1.4
		c-0.3-0.2-0.9,0.1-1.2,0.5c-1,1.5-0.3,3.4-0.5,5.2c-0.2,2-2.1,5.9-4.6,4.4C405.7,239.2,406.7,237.7,407.7,237.1L407.7,237.1z"/>
</g>
<g>
	<g>
		<path class="st0" d="M400,195.3c0,2.6,4.6,0.7,4.7-1C405,191.9,400.1,193.8,400,195.3L400,195.3z M400,195.3
			c0.2-1.2,1.3-1.9,2.4-2.3c1-0.4,3-0.2,2.6,1.4c-0.1,0.6-0.6,1-1,1.4c-0.5,0.3-0.9,0.8-1.4,1C401.4,197.2,399.8,196.7,400,195.3
			L400,195.3z"/>
		<path class="st0" d="M403.7,191.6c0.5-0.3,1.3-0.3,1.9-0.1c0.5,0.2,1.3,0.7,1.2,1.1c-0.1,0.4-0.5,0.9-1.1,1.1
			c-0.2,0.1-0.4,0.1-0.6,0c-0.2-0.1-0.4-0.2-0.5-0.3c-0.2-0.2-0.4-0.3-0.7-0.3c-0.2,0-0.5,0-0.7-0.1c-0.2-0.1-0.2-0.3-0.2-0.4
			c0-0.3,0.1-0.7,0.5-0.9C403.6,191.7,403.6,191.7,403.7,191.6z"/>
		<path class="st0" d="M400.3,194.5c1.3,0,2.6,0.6,3.2,1.4c0.3-0.1,0.7-0.3,0.7-0.6c0-0.2-0.1-0.3-0.2-0.4c-0.7-0.6-1.8-1-3-0.9
			L400.3,194.5z"/>
		<path class="st0" d="M400.8,196.5c0.4,0.2,0.9,0.2,1.3,0c-0.2-0.4-0.7-0.8-1.3-1c-0.1,0-0.3-0.1-0.4-0.1
			C399.5,195.6,400.4,196.4,400.8,196.5z"/>
	</g>
	<path class="st0" d="M402.3,191.8c-0.8-0.6-1.9-0.9-2.8-0.4c-0.4,0.2-0.8,0.6-0.5,1c1,1.2,2.8,0.9,4.2,0.9c1.8,0.1,4.9-0.5,5.7,1.6
		c0.1,0.3,0,0.6-0.2,0.9c-1.4,1.5-4,0.2-4.6-1.4C403.5,193.4,403.1,192.4,402.3,191.8L402.3,191.8z M402.3,191.7
		c0.8,0.6,1.3,1.6,1.9,2.4c0.7,1.3,2.2,2.2,3.6,1.7c0.4-0.1,0.8-0.5,0.7-0.9c-0.2-1-1.4-1.3-2.3-1.4c-2-0.4-4.1,0.2-6.1-0.1
		c-1.2-0.2-2.2-1.6-0.7-2.2C400.4,190.8,401.5,191.1,402.3,191.7L402.3,191.7z"/>
</g>
<g>
	<g>
		<path class="st0" d="M412.8,283.8c-1.1-1.3-0.6-3,1.2-3c1.3,0.1,2.8,0.5,3.7,1.5c1.4,1.4,0.4,2.9-1.3,3
			C415.1,285.5,413.6,284.9,412.8,283.8L412.8,283.8z M412.9,283.8c0.8,1,2.3,1.2,3.5,1.1c1.5-0.2,2.2-1.1,1.2-2.4
			C416.4,280.6,410.9,280.6,412.9,283.8L412.9,283.8z"/>
		<path class="st0" d="M418.7,286.3c0.7,0,1.3-0.3,1.7-0.9c0.3-0.5,0.6-1.5,0.2-2c-0.4-0.5-1.1-0.8-1.7-0.7c-0.2,0-0.4,0.1-0.6,0.3
			c-0.1,0.2-0.1,0.4-0.1,0.7c0,0.3-0.1,0.5-0.3,0.7c-0.1,0.1-0.5,0.2-0.5,0.4c-0.1,0.2,0.1,0.5,0.2,0.7c0.2,0.4,0.6,0.7,1.1,0.8
			C418.6,286.3,418.6,286.3,418.7,286.3z"/>
		<path class="st0" d="M413.7,284.6c1.1-0.7,1.7-2.1,1.6-3.4c0.4,0,0.8,0,1,0.3c0.1,0.2,0.2,0.4,0.1,0.7c-0.1,1.1-0.8,2.2-1.8,2.7
			L413.7,284.6z"/>
		<path class="st0" d="M412.5,281.9c0.2-0.4,0.6-0.7,1.1-0.8c0.1,0.6,0,1.3-0.3,1.9c-0.1,0.1-0.2,0.3-0.3,0.3
			C412.2,283.7,412.4,282.2,412.5,281.9z"/>
	</g>
	<path class="st0" d="M417.5,286.9c-0.1,1.2-1,2.4-2.3,2.2c-1.5-0.1-1.7-2-0.8-3c0.8-0.9,2-1.3,3-1.9c1.8-0.8,4.4-3.1,2.6-5
		c-0.8-0.7-2.1-0.1-2.5,0.9C416.6,282.3,417.9,284.7,417.5,286.9L417.5,286.9z M417.4,286.9c0.4-2.4-1.4-4.6-0.5-6.9
		c0.4-1.2,2.1-2,3.2-1c2,2.2-0.9,4.5-2.8,5.5c-1,0.6-2.1,1.1-2.8,2c-0.7,0.8-0.6,2.3,0.6,2.5C416.4,289.1,417.3,288,417.4,286.9
		L417.4,286.9z"/>
</g>
<g>
	<path class="st0" d="M379.5,125.5c1.3,0,2,1.2,1.1,2.2c-0.8,0.7-1.7,1.4-2.7,1.5c-0.5,0-1.3-0.1-1.4-0.7
		C376.1,126.9,378,125.5,379.5,125.5L379.5,125.5z M379.5,125.6c-1,0-1.8,0.8-2.4,1.6c-0.6,0.9-0.6,1.9,0.7,1.9
		C379.5,129.2,382.5,126,379.5,125.6L379.5,125.6z"/>
	<path class="st0" d="M375.1,127.9c-0.3,0.4-0.4,0.9-0.3,1.4c0.1,0.4,0.6,1.1,1.1,1.1c0.5,0,1-0.3,1.3-0.7c0.1-0.1,0.1-0.3,0.1-0.5
		c0-0.2-0.2-0.3-0.3-0.4c-0.2-0.1-0.3-0.3-0.3-0.5c0-0.2,0.1-0.4,0-0.5c-0.1-0.1-0.3-0.2-0.5-0.2c-0.3-0.1-0.7,0-1,0.2
		C375.1,127.8,375.1,127.8,375.1,127.9z"/>
	<path class="st0" d="M376.1,124.6c0.3-0.6,1.3-1.1,1.7-0.3c0.3,0.6,0.2,1.3,0.2,2c-0.1,1-1.2,1.4-1.7,2c-0.3,0.3-0.4,0.8-0.4,1.2
		c0,0.9,0.4,1.8,1,2.3c0.6,0.6,1.7,0.4,1.9-0.5c0.2-1.2-0.6-2.6-1.6-3.2C375.7,127.5,375.4,125.9,376.1,124.6L376.1,124.6z
		 M376.1,124.7c-0.4,0.8-0.4,1.8,0.1,2.5c0.5,0.7,1.6,0.9,2,1.7c0.7,1,1.4,3.2-0.3,3.6c-1.9,0.2-2.8-2.9-1.9-4.2
		c0.3-0.4,0.7-0.6,1-0.9c0.7-0.5,0.7-1.5,0.7-2.3C377.8,123.8,376.7,123.7,376.1,124.7L376.1,124.7z"/>
	<path class="st0" d="M378.4,125.8c-0.1,1,0.4,2,1.2,2.6c-0.2,0.2-0.4,0.5-0.7,0.5c-0.2,0-0.3-0.1-0.5-0.2c-0.6-0.6-0.9-1.5-0.7-2.3
		L378.4,125.8z"/>
	<path class="st0" d="M380.8,126.3c0.1,0.3,0.1,0.7-0.1,1c-0.4-0.2-0.8-0.6-0.9-1.1c0-0.1-0.1-0.2,0-0.3
		C379.9,125.2,380.7,126,380.8,126.3z"/>
</g>
<g>
	<g>
		<path class="st0" d="M106.9,123.7c-0.4,1.2-1.5,2.5-2.7,1.2c-0.5-0.6-0.7-1.4-0.8-2.2c-0.2-1.1-0.4-2.3-0.1-3.5
			c0.3-1.5,1.5-2.5,2.7-1.1C107.3,119.6,107.6,121.9,106.9,123.7L106.9,123.7z M106.9,123.7c0.5-1.8-0.2-3.8-1.2-5.2
			c-0.4-0.6-1.1-0.8-1.6-0.1c-1.2,1.5-0.8,3.7-0.1,5.4C104.8,125.5,106.2,125.5,106.9,123.7L106.9,123.7z"/>
		<path class="st0" d="M106.3,115.8c-0.3-0.7-0.9-1.3-1.5-1.3c-0.6-0.1-1.6,0.3-1.8,1c-0.3,0.7-0.2,1.7,0.2,2.3
			c0.1,0.2,0.3,0.4,0.5,0.4c0.2,0,0.4-0.1,0.6-0.2c0.3-0.2,0.5-0.2,0.8-0.1c0.2,0.1,0.4,0.4,0.6,0.3c0.2,0,0.4-0.4,0.5-0.6
			c0.2-0.5,0.3-1.1,0.2-1.7C106.4,116,106.4,115.9,106.3,115.8z"/>
		<path class="st0" d="M107.2,122.3c-1.1-0.7-2.6-0.7-3.6,0.2c-0.2-0.4-0.4-0.9-0.2-1.3c0.1-0.3,0.3-0.4,0.5-0.5
			c1-0.6,2.2-0.4,3.1,0.4L107.2,122.3z"/>
		<path class="st0" d="M105.4,125.2c-0.4,0-0.9-0.3-1.1-0.8c0.5-0.5,1.1-0.8,1.8-0.7c0.1,0,0.3,0,0.4,0.2
			C107.1,124.5,105.8,125.2,105.4,125.2z"/>
	</g>
	<path class="st0" d="M107.4,116.8c1.2-0.6,2.7,0,3,1.3c0.5,1.3-0.6,2.9-2.1,2.6c-0.7-0.2-1.2-0.6-1.6-0.9c-1.3-1.1-2.8-2.6-4.5-2.9
		c-1.2-0.2-2.2,0.8-2.3,1.9c-0.2,1.1,0.7,2.2,1.8,2.1C103.9,120.5,105.2,117.7,107.4,116.8L107.4,116.8z M107.4,116.9
		c-2.3,1-3.1,4.1-5.7,4.6c-1.5,0.2-2.6-1.4-2.3-2.7c0.9-3.6,4.1-2,6-0.3c0.9,0.7,1.9,1.6,3,1.9c1.2,0.2,2-1,1.7-2.1
		C109.9,116.9,108.6,116.3,107.4,116.9L107.4,116.9z"/>
</g>
<g>
	<g>
		<path class="st0" d="M194.5,71.8c1.7-0.2,2.9,1.1,1.9,2.6c-1,1.3-2.5,2.7-4.3,2.4c-1.3-0.2-1.3-1.9-0.8-2.7
			C191.9,72.8,193.2,71.9,194.5,71.8L194.5,71.8z M194.5,71.8c-1.3,0.2-2.2,1.3-2.8,2.4c-0.6,1.3-0.2,2.5,1.4,2.3
			C195.5,76.5,198.3,71.8,194.5,71.8L194.5,71.8z"/>
		<path class="st0" d="M189.3,75.4c-0.4,0.5-0.4,1.3-0.1,1.9c0.2,0.5,1,1.3,1.6,1.2c0.6-0.1,1.3-0.5,1.5-1.1c0.1-0.2,0.1-0.4,0-0.6
			c-0.1-0.2-0.3-0.4-0.5-0.5c-0.2-0.2-0.4-0.4-0.5-0.7c0-0.2,0.1-0.5-0.1-0.7c-0.1-0.2-0.5-0.2-0.6-0.2c-0.5,0-0.9,0.1-1.3,0.5
			C189.4,75.3,189.4,75.4,189.3,75.4z"/>
		<path class="st0" d="M193.4,72.1c0.1,1.3,0.8,2.6,2,3.2c-0.2,0.3-0.4,0.7-0.8,0.7c-0.2,0-0.5-0.1-0.6-0.2c-0.9-0.7-1.4-1.8-1.4-3
			L193.4,72.1z"/>
		<path class="st0" d="M196.4,72.6c0.2,0.4,0.3,0.9,0.1,1.3c-0.6-0.2-1.1-0.7-1.4-1.3c-0.1-0.1-0.1-0.3-0.1-0.4
			C195,71.3,196.2,72.2,196.4,72.6z"/>
	</g>
	<path class="st0" d="M189.5,74.1c-0.9-0.7-1.5-2.1-0.7-3.2c0.9-1.2,2.6-0.4,3,0.8c0.4,1.2,0,2.4,0,3.5c-0.2,1.9,0.3,5.4,2.9,4.8
		c1-0.3,1.2-1.7,0.6-2.6C193.9,75.8,191.1,75.6,189.5,74.1L189.5,74.1z M189.5,74.1c1.8,1.6,4.6,1.2,6.1,3.3c0.8,1,0.6,2.9-0.8,3.2
		c-2.9,0.5-3.4-3.1-3.2-5.3c0-1.1,0.2-2.3-0.2-3.4c-0.3-1-1.6-1.7-2.4-0.8C188.2,72,188.7,73.4,189.5,74.1L189.5,74.1z"/>
</g>
<g>
	<g>
		<path class="st0" d="M203.8,300.9c3.7,0.9,2-4.3-0.2-4.9c-1.6-0.6-2.2,0.4-1.9,1.9C202,299.1,202.6,300.5,203.8,300.9L203.8,300.9
			z M203.8,301c-1.3-0.4-2.3-1.6-2.6-3c-0.3-1,0.1-2.6,1.4-2.5c1.8,0.2,2.9,1.8,3.6,3.3C206.9,300.6,205.4,301.6,203.8,301
			L203.8,301z"/>
		<path class="st0" d="M199.6,296.2c-0.2-0.6-0.1-1.4,0.3-1.9c0.4-0.5,1.3-1,1.9-0.8c0.6,0.2,1.1,0.8,1.2,1.4c0,0.2,0,0.5-0.1,0.6
			c-0.1,0.2-0.4,0.3-0.6,0.4c-0.3,0.1-0.5,0.3-0.6,0.5c-0.1,0.2-0.1,0.5-0.2,0.6c-0.2,0.1-0.5,0.1-0.7,0c-0.5-0.1-0.9-0.4-1.1-0.8
			C199.7,296.3,199.7,296.2,199.6,296.2z"/>
		<path class="st0" d="M202.8,300.4c0.4-1.3,1.4-2.3,2.7-2.6c-0.1-0.4-0.3-0.8-0.6-0.9c-0.2-0.1-0.5,0-0.7,0.1c-1,0.4-1.8,1.4-2,2.6
			L202.8,300.4z"/>
		<path class="st0" d="M205.8,300.6c0.3-0.3,0.5-0.8,0.4-1.3c-0.6,0.1-1.3,0.4-1.7,0.9c-0.1,0.1-0.2,0.3-0.2,0.4
			C204.2,301.5,205.5,300.9,205.8,300.6z"/>
	</g>
	<path class="st0" d="M199.5,297.6c-1,0.5-1.8,1.7-1.2,2.8c0.6,1.1,2,0.7,2.5-0.2c0.6-0.9,0.7-2.1,1-3.2c0.3-2.1,1.6-5.6,4.3-4.4
		c1.3,0.7,1.1,2.5,0,3.3C204.2,297.5,201.6,296.4,199.5,297.6L199.5,297.6z M199.5,297.5c2-1.1,4.7-0.6,6.4-2c0.8-0.7,1-2.1,0.1-2.6
		c-2.4-1.1-3.7,2.1-4,4c-0.2,1.1-0.2,2.3-0.8,3.4c-0.6,1.2-2.5,1.5-3.1,0.1C197.5,299.2,198.4,298,199.5,297.5L199.5,297.5z"/>
</g>
<g>
	<g>
		<path class="st0" d="M203.9,259.7c1.9-0.7,1.8-2.1,0-2.9c-1.7-0.7-3.8-1-5.4,0.1C196.6,258.7,202.7,260.5,203.9,259.7L203.9,259.7
			z M203.9,259.8c-1.8,0.6-4.1,0.4-5.6-0.9c-1.4-1.2-0.4-2.4,1.1-2.7c1.2-0.3,2.3-0.1,3.5,0.1c0.8,0.1,1.6,0.3,2.2,0.8
			C206.4,258.2,205.2,259.4,203.9,259.8L203.9,259.8z"/>
		<path class="st0" d="M196.1,259.2c-0.7-0.3-1.3-0.9-1.3-1.5c-0.1-0.6,0.3-1.6,1-1.8c0.7-0.3,1.7-0.2,2.3,0.2
			c0.2,0.1,0.4,0.3,0.4,0.5c0,0.2-0.1,0.4-0.2,0.6c-0.2,0.3-0.2,0.5-0.1,0.8c0.1,0.2,0.4,0.4,0.3,0.6c0,0.2-0.4,0.4-0.6,0.5
			c-0.5,0.2-1.1,0.3-1.7,0.2C196.2,259.2,196.1,259.2,196.1,259.2z"/>
		<path class="st0" d="M202.6,260.1c-0.7-1.1-0.7-2.6,0.2-3.6c-0.4-0.2-0.9-0.4-1.3-0.2c-0.3,0.1-0.4,0.3-0.5,0.5
			c-0.6,1-0.4,2.2,0.4,3.1L202.6,260.1z"/>
		<path class="st0" d="M205.4,258.2c0-0.4-0.3-0.9-0.8-1.1c-0.5,0.5-0.8,1.1-0.7,1.8c0,0.1,0,0.3,0.2,0.4
			C204.7,259.9,205.4,258.6,205.4,258.2z"/>
	</g>
	<path class="st0" d="M197.1,260.3c-0.6,1.1,0,2.5,1.3,2.7c1.1,0.3,2.3-0.5,2.1-1.7c-0.2-1.1-1.2-2.1-1.9-3c-1.7-1.9-3.2-5.1,0.3-6
		c1.3-0.3,2.9,0.8,2.7,2.3C201.3,257.2,198.2,258,197.1,260.3L197.1,260.3z M197.1,260.2c0.9-2.2,3.7-3.5,4.1-5.7
		c0.1-1.1-1-2-2.1-1.8c-3.2,0.6-1.8,3.8-0.3,5.4c0,0,1.2,1.4,1.2,1.4c0.4,0.5,0.8,1,0.9,1.6c0.4,1.5-1.3,2.6-2.6,2.1
		C197,262.9,196.4,261.4,197.1,260.2L197.1,260.2z"/>
</g>
<g>
	<g>
		<path class="st0" d="M144,149c0.3,3.2,3.1,4.2,5.4,2.1c1.8-1.7,3.9-4.1,3.7-6.8c-0.2-3.6-2.7-3.5-5.1-1.8
			C146,144,143.9,146.2,144,149L144,149z M143.9,149c-0.2-2.7,1.2-5.6,3.5-7.2c1.6-1.3,4.9-2.1,5.8,0.4c1.2,3.5-1.3,6.8-3.4,9.4
			C147.3,154.2,144.1,152.6,143.9,149L143.9,149z"/>
		<path class="st0" d="M149.7,137c0.9-0.9,2.4-1.3,3.6-0.9c1.1,0.3,2.8,1.5,2.9,2.8c0.1,1.2-0.6,2.7-1.6,3.3
			c-0.4,0.2-0.8,0.4-1.2,0.3c-0.5-0.1-0.8-0.5-1.1-0.8c-0.4-0.4-0.8-0.7-1.4-0.7c-0.4,0-1,0.3-1.3,0.1c-0.3-0.2-0.5-0.8-0.6-1.2
			c-0.2-0.9,0-1.9,0.5-2.6C149.5,137.2,149.6,137.1,149.7,137z"/>
		<path class="st0" d="M142.5,137.6c-1.6,0.3-3.3,2.3-1.6,3.6c0.4,0.3,1,0.5,1.5,0.7c2.1,0.5,4.6,1.2,6.4-0.2c0.9-0.6,1.8-1.5,3-2
			c3.5-1.1,7.3,1.1,9.3,4c1.6,2.4,0.2,5.5-2.9,5.5c-3.6-0.2-6.9-3.3-8.1-6.7c-0.4-1.1-0.6-2.3-1.3-3.1
			C147.3,137.8,144.7,137.1,142.5,137.6L142.5,137.6z M142.5,137.6c2.3-0.5,4.9-0.1,6.7,1.5c1.3,1.2,1.4,3.2,2.4,4.7
			c1.6,2.6,6.6,6.8,9.2,3.2c1.4-3.3-2.6-6.3-5.5-7.1c-1.1-0.3-2.3-0.2-3.3,0.2c-1,0.4-1.8,1.3-2.7,2.1c-1,0.8-2.3,1.2-3.5,1
			c-1.8-0.2-3.6-0.6-5.1-1.7C138.9,140,140.7,137.9,142.5,137.6L142.5,137.6z"/>
		<path class="st0" d="M144.5,146.1c2.6-0.3,5.3,0.8,6.8,2.8c0.6-0.5,1.2-1.1,1.1-1.8c0-0.5-0.4-0.9-0.7-1.2c-1.6-1.6-4-2.2-6.2-1.6
			L144.5,146.1z"/>
		<path class="st0" d="M146,152.3c0.9,0.3,1.9,0.2,2.6-0.3c-0.7-1.1-1.7-2-3-2.3c-0.3-0.1-0.6-0.1-0.9-0.1
			C143.2,150.1,145.4,152,146,152.3z"/>
	</g>
	<path class="st0" d="M145.3,153.7c-5.5,9.8-4.6,26.9,6.2,32.6c6.5,3.1,15.4-1.7,17-8.6c0.5-2.4-1.3-4.6-3.8-4
		c-2.4,0.5-4,2.7-3.8,5.1c0.3,4.8,4.1,8.8,7.7,11.7c7.8,6,19.3,6.3,27.5,0.8c-10.5,7.3-25.6,4.8-33-5.6c-2.1-2.8-4.1-7.2-1.7-10.5
		c1.5-2,5-3.1,6.9-1c2.7,3.3-0.4,7.7-3,10c-3.7,3.3-9.3,4.9-14,2.7c-4.6-2.2-7.3-7-8.6-11.7C140.7,168.1,141.7,160.1,145.3,153.7
		L145.3,153.7z"/>
</g>
<g>
	<g>
		<g>
			<path class="st0" d="M397.3,265.6c1.3,1.2,2.9,0.6,3-1.2c0.1-1.4,0.1-3.1-1-4.2c-1.4-1.4-2.4-0.5-2.8,1.2
				C396.3,262.8,396.3,264.5,397.3,265.6L397.3,265.6z M397.3,265.6c-1.1-1.1-1.5-2.8-1.2-4.3c0.1-1.1,1.2-2.7,2.5-2
				c1.8,1,2,3.3,2.1,5.2C400.6,266.6,398.7,267,397.3,265.6L397.3,265.6z"/>
			<path class="st0" d="M395.3,258.6c0-0.8,0.5-1.5,1.4-1.7c0.7-0.2,1.5,0.1,2,0.6c0.3,0.4,0.6,1.1,0.4,1.6c-0.1,0.5-0.5,0.5-1,0.4
				c-0.3,0-0.6,0-0.8,0.2c-0.2,0.1-0.3,0.5-0.5,0.5c-0.2,0-0.5-0.1-0.7-0.3C395.5,259.7,395.2,259.1,395.3,258.6z"/>
			<path class="st0" d="M396.5,264.2c0.9-1.1,2.5-1.6,3.9-1.4c0.1-0.4,0.1-0.9-0.2-1.2c-0.2-0.2-0.5-0.2-0.7-0.2
				c-1.2-0.1-2.5,0.6-3.2,1.6L396.5,264.2z"/>
			<path class="st0" d="M399.4,266.2c0.5-0.2,0.8-0.6,1-1.1c-0.7-0.2-1.4-0.2-2.1,0.1c-0.2,0.1-0.3,0.2-0.4,0.3
				C397.4,266.4,399,266.4,399.4,266.2z"/>
		</g>
		<path class="st0" d="M398.2,256.2c1.2-2.1,4.1-1.6,3.3,1c-0.8,1.7-2.8,2.5-4.5,2.7c-1.7,0.3-3.6-0.5-5.2,0.5
			c-0.4,0.3-0.7,0.9-0.5,1.2c0.2,0.4,0.9,0.3,1.4,0.2c1.4-0.2,2.8-0.8,3.8-1.8c0.3-0.4,0.3-1.1,0.5-1.6
			C397.3,257.7,397.7,256.9,398.2,256.2L398.2,256.2z M398.2,256.2c-0.7,1-1.1,2.1-1.1,3.3c0,0.3-0.1,0.6-0.3,0.9
			c-0.9,1.2-4.8,3-5.9,1.5c-0.6-1.5,1.3-2.3,2.5-2.3c1.2,0,2.4,0.3,3.6,0.1c1.7-0.3,3.4-1.3,4.2-2.7
			C401.9,254.7,399.3,254.4,398.2,256.2L398.2,256.2z"/>
	</g>
	<path class="st0" d="M398.8,269c-3.5,6.2-9.3,10.8-16,13.1c-4.2,1.2-8.9,2.2-13.1,0.7c-6.3-3.1-0.3-9.5,4.7-6.7
		c5.2,2.9,5.5,10.1,1.1,13.9c-5.4,5.2-13.4,4.3-20.1,3.1c6.7,0.9,14.6,1.6,19.8-3.5c4-3.6,3.8-10.3-1.1-13c-4.2-2.4-9.6,2.9-4.2,5.5
		c4,1.5,8.6,0.5,12.7-0.6C389.3,279.5,395.2,275,398.8,269L398.8,269z"/>
</g>
<g>
	<g>
		<path class="st0" d="M252.5,190.5c-1.7,1.7-0.8,3.9,1.6,4.1c1.9,0.2,4.3,0.1,5.8-1.3c1.9-1.9,0.6-3.4-1.6-3.8
			C256.4,189.1,254,189,252.5,190.5L252.5,190.5z M252.5,190.5c1.5-1.5,3.8-2.1,5.9-1.7c2.6,0.5,4.2,2.8,1.7,4.8
			c-1.7,1.3-3.9,1.5-6.1,1.6C251.2,195,250.5,192.4,252.5,190.5L252.5,190.5z"/>
		<path class="st0" d="M262.2,187.7c1,0,1.9,0.7,2.4,1.6c0.4,0.8,0.6,2.4-0.1,3.1c-0.7,0.7-1.8,1-2.7,0.8c-0.3-0.1-0.6-0.3-0.8-0.5
			c-0.2-0.3-0.1-0.7-0.1-1c0-0.4-0.1-0.8-0.3-1.2c-0.2-0.2-0.6-0.4-0.7-0.7c-0.1-0.3,0.2-0.7,0.4-0.9c0.4-0.6,1.1-1,1.8-1
			C262,187.7,262.1,187.7,262.2,187.7z"/>
		<path class="st0" d="M256.2,184.5c-1.2-0.4-3.1,0.2-2.5,1.7c0.1,0.4,0.4,0.7,0.7,1.1c1.2,1.2,2.5,2.7,4.2,2.5
			c0.8,0,1.8-0.3,2.7-0.1c0.9,0.2,1.7,0.8,2.3,1.4c1.2,1.4,2,3.1,2.1,4.9c0,2.2-2.2,3.7-4.1,2.4c-2.3-1.7-3.1-4.9-2.5-7.6
			c0.2-0.9,0.6-1.7,0.4-2.5C259.2,186.6,257.8,185.1,256.2,184.5L256.2,184.5z M256.2,184.5c2.8,0.9,4.6,3.6,3.5,6.5
			c-0.7,2.5,1,8.5,4.4,7.1c2.8-2,0.1-7.7-2.9-8c-0.8-0.1-1.7,0.2-2.6,0.3c-0.9,0.1-2-0.2-2.7-0.8c-1.1-0.9-2.1-1.9-2.6-3.2
			C252.9,184.6,254.9,184,256.2,184.5L256.2,184.5z"/>
		<path class="st0" d="M254.4,189.3c1.5,1.3,2.2,3.4,1.9,5.3c0.6,0.1,1.2,0.1,1.6-0.3c0.2-0.3,0.3-0.6,0.3-1
			c0.1-1.7-0.8-3.4-2.2-4.4L254.4,189.3z"/>
		<path class="st0" d="M251.7,193.4c0.3,0.6,0.8,1.2,1.5,1.3c0.3-0.9,0.2-2-0.2-2.9c-0.1-0.2-0.2-0.4-0.4-0.5
			C251.5,190.6,251.5,192.8,251.7,193.4z"/>
	</g>
	<path class="st0" d="M250.5,197.3c-19.9,8.2-27.1,33.1-12.6,49.6c8.7,10.4,24.8,12.5,36.2,5.6c15-8.9,2.2-17.2-1.8-7.8
		c-3.6,11.2,3.6,24.3,14.5,28.4c-11.1-3.9-18.5-17.1-14.9-28.6c4.3-10.2,18.1-1,2.4,8.4c-11.6,7.2-28.1,4.9-36.9-5.7
		C222.9,230.5,230.2,205.3,250.5,197.3L250.5,197.3z"/>
</g>
<g>
	<g>
		<path class="st0" d="M360.4,267.6c0-4.8-1.8-9.2-3.1-13.7c-1.5-4.5-2.5-9.2-5.2-13.1c-2.6-3.8-7.2-6.6-11.9-5.9
			c-0.8-3.4-3-6.4-5.8-8.4c-2.9-2-6.5-3-10-2.5c-2.9-6.9-11.7-10.7-18.7-8c-1.8-2.5-5-3.7-8-3.8c-2.9,0-5.7,0.9-8.4,2
			c-5.8-4-14.5-2.7-18.9,2.7c-2.1-0.5-4.3-0.6-6.4-0.3c-7.1,1.2-15.2,4.5-14.5,12.7c-7.3,1-14.6,7.3-14,15
			c-9.7,0.4-16.8,9.9-14.3,19.3c-13.3,5.7-5,25.9-1.7,35.9c1.1,3.4,2.4,7.9,4.2,12.3c0,0,0,0,0.1,0c0.1,0,0.2,0.1,0.4,0.1
			c-1.8-4.1-3-8.5-4.4-12.5c-2.8-9.1-7.3-19.1-4.2-28.6c1.1-2.9,3.5-5.6,6.5-6.3l0.6-0.1c0,0-0.2-0.6-0.2-0.6c-2.4-9,5-18,14.2-17.2
			c0,0,1.5,0.1,1.5,0.1c-2.5-7.9,5.6-14.6,12.9-14.7c0,0,1.5,0,1.5,0c-0.4-2.3-0.7-5.4,0.6-7.1c2.4-3.1,7.3-4.6,11.1-5.2
			c2.5-0.4,4.9,0,7.2,0.9c0,0,0.6-1,0.6-1c3.2-5,11.3-6.2,15.9-2.5l0.7,0.5c0,0,0.8-0.3,0.8-0.3c5.3-2.3,12.4-4.1,14.8,2.4
			c6.1-4.1,15.6-0.9,17.8,6.1c0,0,0.4,1.2,0.4,1.2c6.5-2.4,14.6,2.4,15.6,9.3c0,0,0.2,1.3,0.2,1.3c4.4-1.9,9.4,0.4,12.1,4.3
			c2.7,3.6,3.8,8.2,5.3,12.5c1.4,4.4,3.3,8.7,3.4,13.2c0.2,4.5-2.2,9.6-6.8,10.9l0.3,0.5c3.3,6,0.2,14.8-6.2,17.3l-0.4,0.2l0.1,0.4
			c1.7,5.3-0.9,11.5-5.5,14.5c0.6,0,1.1,0,1.7,0c4.1-3.4,6.3-9.2,4.7-14.4c3.3-1.5,5.7-4.4,6.9-7.7c1.2-3.3,1.2-7.1-0.3-10.2
			C358.1,277.2,360.4,272.2,360.4,267.6z"/>
		<path class="st0" d="M340,235.6c-0.7,2.8,0.3,5.9,1,9c0.8,3.1,1.6,6.2,2.5,9.3c1.8,6.1,3.9,12.2,6.2,18.2
			c-4.5-10.3-8.5-20.9-11.4-31.8c-0.4-1.6-0.5-3.4-0.1-5.2L340,235.6L340,235.6z"/>
		<path class="st0" d="M324.1,225.7c-1.1,2.1-0.4,5,0,7.7c0.4,2.8,0.9,5.5,1.5,8.2c3.5,16.4,9.9,32.1,16.2,47.6
			c-6.8-15.4-13.6-30.9-17.6-47.3c-0.6-2.7-1.2-5.5-1.7-8.3c-0.4-2.9-1.4-5.9,0-8.8C322.4,224.9,324.1,225.7,324.1,225.7
			L324.1,225.7z"/>
		<path class="st0" d="M305.6,217.3c-0.8,8.1,1.4,16.2,3.2,24.2c1.9,8,4,16,6.4,23.9c5,15.7,10.1,31.5,18.6,45.8
			c-6.6-10.5-11.2-22.1-15.4-33.8c-4.3-11.6-7.9-23.5-11-35.5c-1.9-8.1-4.4-16.2-3.7-24.7C303.8,217.1,305.6,217.3,305.6,217.3
			L305.6,217.3z"/>
		<path class="st0" d="M291.6,242.2c5.2,22,12.9,43.5,22.9,63.8c0.9,1.8,1.8,3.6,2.7,5.4c0.1,0,0.1,0,0.2,0
			c-3.2-5.7-5.5-11.9-8.2-17.9c-6.9-16.7-12.4-34-16.2-51.6c-1-4.4-1.8-8.8-2.6-13.3c-0.8-4.4-1.3-8.9-0.4-13.1l-1.8-0.4
			c-0.9,4.7-0.2,9.4,0.6,13.8C289.6,233.3,290.5,237.8,291.6,242.2z"/>
		<path class="st0" d="M297.9,311.5c0.1,0,0.2,0,0.3,0c-6-12.5-11.2-25.3-15.2-38.5c-5.3-17.7-10.2-35.9-10.4-54.4c0,0-1.9,0-1.9,0
			c0.5,18.8,5.8,36.9,11.4,54.7C286.4,286.4,291.7,299.2,297.9,311.5z"/>
		<path class="st0" d="M276.3,311.5c0.1,0,0.2,0,0.3,0c-7.1-18.4-13.4-37.2-18.7-56.2c-2.1-7.8-4.4-15.5-5.3-23.5
			c0,0-1.9,0.3-1.9,0.3c0.6,4,1.4,8.1,2.5,12C259.6,266.9,267.3,289.4,276.3,311.5z"/>
		<path class="st0" d="M258.4,311.7C258.4,311.7,258.5,311.7,258.4,311.7c-5.9-17.2-11.3-34.5-16.1-52.1c-1.4-6.1-3.9-12.4-4.2-18.6
			l-1.9,0c0.1,3.4,1.1,6.6,2,9.6C244.1,271.3,250.9,291.7,258.4,311.7z"/>
		<polygon class="st0" points="222.3,263.3 229.2,288.9 221,263.6 222.3,263.3 		"/>
	</g>
	<g>
		<path class="st0" d="M339.4,238.5c2-0.2,4,0,5.9,0.5c-1.9-0.3-3.9-0.1-5.7,0.4L339.4,238.5L339.4,238.5z"/>
		<path class="st0" d="M339.7,240.5c1.6-0.1,3.3,0.1,4.8,0.6c-1.6-0.2-3.2-0.1-4.6,0.3L339.7,240.5L339.7,240.5z"/>
		<path class="st0" d="M340.1,243.5c1.8,0,3.6,0.2,5.2,0.7c-1.7-0.2-3.5-0.1-5.1,0.3L340.1,243.5L340.1,243.5z"/>
		<path class="st0" d="M341.2,247c1.7-0.1,3.4,0.1,5,0.5c-1.6-0.1-3.3,0.1-4.8,0.4L341.2,247L341.2,247z"/>
		<polygon class="st0" points="343.3,254.2 346.6,254.1 343.5,255.1 343.3,254.2 		"/>
		<polygon class="st0" points="345.4,260.6 348.5,260.4 345.6,261.5 345.4,260.6 		"/>
		<path class="st0" d="M322.8,228.2c2.3-0.5,4.7-0.4,6.8,0.2c-2.2-0.3-4.5-0.1-6.6,0.7L322.8,228.2L322.8,228.2z"/>
		<path class="st0" d="M323.1,230.1c2.4,0.1,4.7,0.5,6.9,1.2c-2.3-0.4-4.6-0.5-6.9-0.3L323.1,230.1L323.1,230.1z"/>
		<path class="st0" d="M323.5,232.7c1.9-0.1,3.7,0.2,5.4,0.9c-1.8-0.3-3.6-0.3-5.3,0.1L323.5,232.7L323.5,232.7z"/>
		<path class="st0" d="M324,236.1c1.4-0.2,2.7-0.1,4.1,0.1c-1.3,0-2.6,0.3-3.8,0.8L324,236.1L324,236.1z"/>
		<path class="st0" d="M324.6,238.5c1.6,0,3.2,0.1,4.8,0.4c-1.6,0.1-3.2,0.3-4.7,0.6L324.6,238.5L324.6,238.5z"/>
		<polygon class="st0" points="325.3,241.7 329.9,241.9 325.3,242.6 325.3,241.7 		"/>
		<polygon class="st0" points="325.9,244.6 329.9,244.6 326,245.5 325.9,244.6 		"/>
		<path class="st0" d="M326.8,248.5c1.1-0.1,2.2,0,3.3,0.2c-1.1,0.1-2.1,0.4-3.1,0.7L326.8,248.5L326.8,248.5z"/>
		<path class="st0" d="M329,255.2c1.5-0.1,3-0.1,4.4,0c-1.4,0.2-2.9,0.5-4.2,0.9L329,255.2L329,255.2z"/>
		<polygon class="st0" points="331.6,264 335.3,263.3 331.9,264.9 331.6,264 		"/>
		<polygon class="st0" points="334,270.3 336.5,270.1 334.2,271.2 334,270.3 		"/>
		<path class="st0" d="M336.3,276c0.6-0.1,1.3-0.1,1.9,0c-0.6,0.2-1.1,0.5-1.5,0.9L336.3,276L336.3,276z"/>
		<path class="st0" d="M317.5,221.5c-3.7-2.3-8.4-2.7-12.3-1.1l-0.3-0.9C309.2,218.1,314,218.9,317.5,221.5
			C317.5,221.5,314,218.9,317.5,221.5z"/>
		<path class="st0" d="M315.1,222.5c-3.1-1.1-6.5-1.1-9.6-0.2l-0.2-0.9C308.6,220.7,312.1,221.1,315.1,222.5
			C315.1,222.5,312.1,221.1,315.1,222.5z"/>
		<path class="st0" d="M313.8,224.3c-2.8-0.5-5.7-0.4-8.3,0.3l-0.2-0.9C308.2,223.3,311.1,223.5,313.8,224.3
			C313.8,224.3,311.1,223.5,313.8,224.3z"/>
		<path class="st0" d="M312.6,226.7c-2.3-0.2-4.6,0.2-6.7,1.2l-0.3-0.9C307.9,226.3,310.4,226.2,312.6,226.7
			C312.6,226.7,310.4,226.2,312.6,226.7z"/>
		<path class="st0" d="M311.4,229.4c-1.9,0.2-3.7,0.6-5.4,1.4l-0.3-0.9C307.6,229.4,309.5,229.3,311.4,229.4
			C311.4,229.4,309.5,229.3,311.4,229.4z"/>
		<path class="st0" d="M312.6,232.8c-2.1,0.3-4.2,0.9-6.1,1.8l-0.3-0.9C308.2,233.1,310.4,232.8,312.6,232.8
			C312.6,232.8,310.4,232.8,312.6,232.8z"/>
		<polygon class="st0" points="313.4,237 307.1,238.9 306.9,238 313.4,237 		"/>
		<polygon class="st0" points="314.2,241.5 308.9,243.4 308.7,242.5 314.2,241.5 		"/>
		<polygon class="st0" points="315.4,247.5 310.4,249.5 310.2,248.6 315.4,247.5 		"/>
		<polygon class="st0" points="315.6,252.2 311.8,253.6 311.5,252.7 315.6,252.2 		"/>
		<polygon class="st0" points="316.5,257.5 312.9,258.8 312.7,257.9 316.5,257.5 		"/>
		<polygon class="st0" points="318.1,265.5 315.4,266.8 315.1,265.9 318.1,265.5 		"/>
		<polygon class="st0" points="319.3,270.5 317.1,271.7 316.8,270.8 319.3,270.5 		"/>
		<polygon class="st0" points="323.5,280.6 320.7,282.2 320.3,281.4 323.5,280.6 		"/>
		<polygon class="st0" points="325.7,287.6 323.3,289.2 322.9,288.3 325.7,287.6 		"/>
		<polygon class="st0" points="326.6,293.7 325.5,294.7 325.1,293.9 326.6,293.7 		"/>
		<path class="st0" d="M299.7,217.4c-3.6-0.2-7.1,0.3-10.4,1.6l-0.3-0.9C292.5,217.1,296.2,216.8,299.7,217.4
			C299.7,217.4,296.2,216.8,299.7,217.4z"/>
		<path class="st0" d="M298.7,219.9c-3.4-0.1-6.9,0.5-9.9,1.9l-0.3-0.9C291.7,219.8,295.3,219.5,298.7,219.9
			C298.7,219.9,295.3,219.5,298.7,219.9z"/>
		<path class="st0" d="M297.6,223.1c-2.9,0-5.8,0.7-8.3,1.9l-0.4-0.9C291.7,223.1,294.7,222.8,297.6,223.1
			C297.6,223.1,294.7,222.8,297.6,223.1z"/>
		<path class="st0" d="M296.5,226.2c-2.3,0.2-4.6,0.8-6.7,1.7l-0.3-0.9C291.7,226.4,294.1,226.1,296.5,226.2
			C296.5,226.2,294.1,226.1,296.5,226.2z"/>
		<path class="st0" d="M296.1,230.1c-1.9,0.4-3.7,1-5.4,1.8l-0.3-0.9C292.3,230.5,294.2,230.2,296.1,230.1
			C296.1,230.1,294.2,230.2,296.1,230.1z"/>
		<path class="st0" d="M297.5,234c-2.1,0.5-4.1,1.2-6,2l-0.3-0.9C293.2,234.5,295.4,234.1,297.5,234
			C297.5,234,295.4,234.1,297.5,234z"/>
		<path class="st0" d="M299.5,238.6c-2.4,0.6-4.8,1.3-7.1,2.2l-0.3-0.9C294.5,239.3,297,238.8,299.5,238.6
			C299.5,238.6,297,238.8,299.5,238.6z"/>
		<path class="st0" d="M300.6,244.1c-2.4,0.6-4.6,1.4-6.8,2.4l-0.3-0.9C295.8,244.9,298.2,244.4,300.6,244.1
			C300.6,244.1,298.2,244.4,300.6,244.1z"/>
		<polygon class="st0" points="298.6,248.3 294.6,250.1 294.3,249.2 298.6,248.3 		"/>
		<polygon class="st0" points="298.9,253.4 295.7,255 295.4,254.2 298.9,253.4 		"/>
		<polygon class="st0" points="300.1,259.5 297.4,261 297.1,260.1 300.1,259.5 		"/>
		<polygon class="st0" points="301.5,266.4 299.7,267.8 299.3,266.9 301.5,266.4 		"/>
		<polygon class="st0" points="302.6,271.7 301.5,272.8 301.1,271.9 302.6,271.7 		"/>
		<polygon class="st0" points="306.9,281.8 305.1,283.1 304.7,282.2 306.9,281.8 		"/>
		<polygon class="st0" points="310.4,290.5 308.5,292 308.1,291.1 310.4,290.5 		"/>
		<polygon class="st0" points="312.5,297 310.9,298.1 310.6,297.3 312.5,297 		"/>
		<path class="st0" d="M283,217.5c-3.9,0.2-7.7,1.5-10.9,3.5l-0.5-0.8C275.1,218.3,279.1,217.4,283,217.5
			C283,217.5,279.1,217.4,283,217.5z"/>
		<path class="st0" d="M281.5,220.4c-3.1,0.4-6.1,1.4-8.9,2.7l-0.4-0.9C275.3,221.2,278.4,220.5,281.5,220.4
			C281.5,220.4,278.4,220.5,281.5,220.4z"/>
		<path class="st0" d="M280.1,224.8c-2.5,0.6-4.9,1.4-7.2,2.4l-0.3-0.9C275,225.6,277.6,225.1,280.1,224.8
			C280.1,224.8,277.6,225.1,280.1,224.8z"/>
		<path class="st0" d="M278.8,228.7c-2.2,0.7-4.4,1.5-6.5,2.4l-0.3-0.9C274.2,229.6,276.5,229.1,278.8,228.7
			C278.8,228.7,276.5,229.1,278.8,228.7z"/>
		<path class="st0" d="M279.3,233.2c-1.9,0.5-3.7,1.3-5.5,2.2l-0.4-0.9C275.4,233.8,277.4,233.4,279.3,233.2
			C279.3,233.2,277.4,233.4,279.3,233.2z"/>
		<polygon class="st0" points="278.7,237.8 274.4,239.6 274.2,238.7 278.7,237.8 		"/>
		<polygon class="st0" points="280.1,243.5 275.5,245.6 275.2,244.7 280.1,243.5 		"/>
		<polygon class="st0" points="282.4,251.6 277.6,253.7 277.3,252.8 282.4,251.6 		"/>
		<polygon class="st0" points="283.3,257.1 278.8,259.1 278.5,258.2 283.3,257.1 		"/>
		<polygon class="st0" points="285.3,266.2 281.3,268.2 281,267.3 285.3,266.2 		"/>
		<polygon class="st0" points="289.1,284.9 287.2,286.1 286.9,285.2 289.1,284.9 		"/>
		<polygon class="st0" points="293.5,291.9 290.2,293.5 289.9,292.6 293.5,291.9 		"/>
		<polygon class="st0" points="295.9,300.8 293.8,302.1 293.4,301.2 295.9,300.8 		"/>
		<path class="st0" d="M266.4,222.9c-5.3,0.5-10.4,2.6-14.4,5.9l-0.6-0.7C255.8,224.8,261.1,223,266.4,222.9
			C266.4,222.9,261.1,223,266.4,222.9z"/>
		<path class="st0" d="M262.4,228.1c-3.6,0.6-7,1.9-10.1,3.8l-0.5-0.8C255.2,229.4,258.8,228.4,262.4,228.1
			C262.4,228.1,258.8,228.4,262.4,228.1z"/>
		<path class="st0" d="M260.6,232.6c-2.7,0.9-5.3,2.2-7.6,3.7l-0.5-0.8C255.1,234.2,257.8,233.2,260.6,232.6
			C260.6,232.6,257.8,233.2,260.6,232.6z"/>
		<path class="st0" d="M260.3,237.7c-2.3,0.7-4.4,1.7-6.3,3l-0.5-0.8C255.7,238.9,258,238.1,260.3,237.7
			C260.3,237.7,258,238.1,260.3,237.7z"/>
		<path class="st0" d="M264.1,243.4c-3,0.8-6,1.8-8.8,3.1l-0.3-0.9C258,244.7,261.1,243.9,264.1,243.4
			C264.1,243.4,261.1,243.9,264.1,243.4z"/>
		<path class="st0" d="M265,249c-2.9,0.8-5.6,1.9-8.4,3l-0.3-0.9C259.1,250.2,262,249.5,265,249C265,249,262,249.5,265,249z"/>
		<path class="st0" d="M264.3,254.6c-2.1,0.7-4.2,1.6-6.2,2.6l-0.4-0.9C259.9,255.6,262.1,255,264.3,254.6
			C264.3,254.6,262.1,255,264.3,254.6z"/>
		<polygon class="st0" points="262.7,258.6 259.3,260.2 259.1,259.3 262.7,258.6 		"/>
		<polygon class="st0" points="266.8,265.4 260.8,268 260.5,267.1 266.8,265.4 		"/>
		<polygon class="st0" points="270.9,273.7 264,276.7 263.6,275.8 270.9,273.7 		"/>
		<polygon class="st0" points="269.8,280.4 266.1,282.3 265.8,281.4 269.8,280.4 		"/>
		<polygon class="st0" points="270.9,286.3 267.7,288.1 267.3,287.3 270.9,286.3 		"/>
		<polygon class="st0" points="275.3,293.8 270.5,296.5 270.1,295.7 275.3,293.8 		"/>
		<polygon class="st0" points="278.3,304 274.4,306.2 274.1,305.3 278.3,304 		"/>
		<polygon class="st0" points="274.6,301.9 273.3,303 272.9,302.1 274.6,301.9 		"/>
		<path class="st0" d="M249.4,235.8c-4.4,1-8.5,3.1-11.8,6.2l-0.6-0.7C240.6,238.4,244.9,236.5,249.4,235.8
			C249.4,235.8,244.9,236.5,249.4,235.8z"/>
		<path class="st0" d="M247.2,240.4c-3.3,0.9-6.4,2.4-9.1,4.4l-0.5-0.8C240.5,242.2,243.8,241,247.2,240.4
			C247.2,240.4,243.8,241,247.2,240.4z"/>
		<path class="st0" d="M247.4,244.2c-3.2,0.9-6.3,2.3-9,4.2l-0.5-0.8C240.9,245.9,244.1,244.8,247.4,244.2
			C247.4,244.2,244.1,244.8,247.4,244.2z"/>
		<path class="st0" d="M247.8,249c-2.7,0.9-5.2,2.1-7.6,3.5l-0.5-0.8C242.3,250.5,245,249.6,247.8,249
			C247.8,249,245,249.6,247.8,249z"/>
		<path class="st0" d="M248.7,254.3c-2.6,0.9-5.1,2.1-7.4,3.6l-0.5-0.8C243.3,255.8,246,254.9,248.7,254.3
			C248.7,254.3,246,254.9,248.7,254.3z"/>
		<path class="st0" d="M249.3,260c-2.3,0.7-4.5,1.7-6.5,2.8l-0.4-0.8C244.6,261.1,246.9,260.5,249.3,260
			C249.3,260,246.9,260.5,249.3,260z"/>
		<path class="st0" d="M251.2,265c-2.3,0.9-4.5,1.9-6.5,3.1l-0.4-0.8C246.5,266.3,248.8,265.5,251.2,265
			C251.2,265,248.8,265.5,251.2,265z"/>
		<path class="st0" d="M251.2,271.3c-1.7,0.7-3.3,1.6-4.8,2.6l-0.5-0.8C247.6,272.3,249.4,271.7,251.2,271.3
			C251.2,271.3,249.4,271.7,251.2,271.3z"/>
		<polygon class="st0" points="252.5,277.4 247.7,279.3 247.4,278.4 252.5,277.4 		"/>
		<polygon class="st0" points="253.5,282.3 249.4,284.2 249.1,283.3 253.5,282.3 		"/>
		<polygon class="st0" points="256.5,289.3 251.8,291.5 251.5,290.6 256.5,289.3 		"/>
		<polygon class="st0" points="260.3,297.4 254.7,300.3 254.3,299.5 260.3,297.4 		"/>
		<path class="st0" d="M234.8,249.4c-5.6,1.2-10.4,4.9-13.1,9.8l-0.8-0.5C224,253.8,229.2,250.3,234.8,249.4
			C234.8,249.4,229.2,250.3,234.8,249.4z"/>
		<path class="st0" d="M233.2,253.7c-4.6,1.7-8.6,4.8-11.3,8.8l-0.7-0.6C224.2,258,228.5,255.2,233.2,253.7
			C233.2,253.7,228.5,255.2,233.2,253.7z"/>
		<path class="st0" d="M232,258.5c-4,1.1-7.5,3.5-10,6.7l-0.7-0.6C224.1,261.5,227.9,259.3,232,258.5
			C232,258.5,227.9,259.3,232,258.5z"/>
		<path class="st0" d="M230.3,263.5c-2.7,1-5.1,2.7-7,4.8l-0.7-0.7C224.9,265.6,227.6,264.2,230.3,263.5
			C230.3,263.5,227.6,264.2,230.3,263.5z"/>
		<path class="st0" d="M231.8,267.6c-2.7,1.2-5.2,2.8-7.4,4.7l-0.6-0.7C226.3,269.9,229,268.6,231.8,267.6
			C231.8,267.6,229,268.6,231.8,267.6z"/>
		<path class="st0" d="M232.7,274c-2.3,0.8-4.5,1.9-6.6,3.3l-0.5-0.8C227.9,275.4,230.3,274.5,232.7,274
			C232.7,274,230.3,274.5,232.7,274z"/>
		<polygon class="st0" points="233.6,280.7 227.6,283.5 227.3,282.7 233.6,280.7 		"/>
	</g>
	<g>
		<path class="st0" d="M222.6,266.8c-1.6,0.3-3.2,1.1-4.6,2.2c1.1-1.4,2.6-2.5,4.3-3.1L222.6,266.8L222.6,266.8z"/>
		<path class="st0" d="M223.3,269.6c-2.1,0.7-4,1.9-5.5,3.6c1.3-1.9,3.1-3.5,5.2-4.5L223.3,269.6L223.3,269.6z"/>
		<path class="st0" d="M224.5,273.1c-2.2,0.6-4.4,1.7-6.2,3.2c1.7-1.7,3.7-3.1,5.9-4.1L224.5,273.1L224.5,273.1z"/>
		<path class="st0" d="M225.3,275.8c-1.5,0.3-2.9,0.9-4.1,1.8c1-1.2,2.4-2.1,3.9-2.7L225.3,275.8L225.3,275.8z"/>
		<path class="st0" d="M226.2,278.9c-1.4,0.3-2.7,1-3.9,2c0.9-1.2,2.2-2.1,3.6-2.8L226.2,278.9L226.2,278.9z"/>
	</g>
	<g>
		<path class="st0" d="M338.3,237.1c-0.5-2.1-1.8-4-3.6-5.4c2,1.1,3.6,2.9,4.5,5.1L338.3,237.1L338.3,237.1z"/>
		<path class="st0" d="M338.5,239.4c-0.7-1.7-1.7-3.2-2.9-4.6c1.4,1.2,2.7,2.6,3.7,4.2L338.5,239.4L338.5,239.4z"/>
		<path class="st0" d="M338.7,241.4c-0.7-1.1-1.6-2-2.7-2.8c1.3,0.5,2.5,1.2,3.5,2.2L338.7,241.4L338.7,241.4z"/>
		<path class="st0" d="M339.7,244.3c-0.9-1-2-1.7-3.3-2.3c1.3,0.3,2.7,0.8,3.9,1.6L339.7,244.3L339.7,244.3z"/>
		<path class="st0" d="M340.3,247c-0.7-0.6-1.4-1.1-2.3-1.4c0.9,0,1.9,0.2,2.8,0.6L340.3,247L340.3,247z"/>
		<polygon class="st0" points="341.7,250.9 339.2,249.8 342,250 341.7,250.9 		"/>
		<path class="st0" d="M342.5,254.1c-0.5-0.4-1.1-0.7-1.7-0.9c0.7-0.1,1.4-0.1,2.1,0.1L342.5,254.1L342.5,254.1z"/>
		<path class="st0" d="M322.1,227.4c-0.8-1.4-1.8-2.7-3-3.8c1.4,0.9,2.7,2,3.8,3.3L322.1,227.4L322.1,227.4z"/>
		<path class="st0" d="M321.8,229c-0.8-1-1.8-1.9-2.9-2.7c1.3,0.5,2.5,1.1,3.6,2L321.8,229L321.8,229z"/>
		<path class="st0" d="M322.3,231.8c-1.2-1.3-2.6-2.3-4.1-3.1c1.7,0.5,3.3,1.3,4.8,2.4L322.3,231.8L322.3,231.8z"/>
		<path class="st0" d="M322.7,234.4c-1.1-1-2.4-1.9-3.7-2.7c1.4,0.5,2.9,1.1,4.2,1.9L322.7,234.4L322.7,234.4z"/>
		<polygon class="st0" points="323.7,237.4 320.8,235.8 324,236.5 323.7,237.4 		"/>
		<polygon class="st0" points="323.9,240.7 320.6,239.3 324.3,239.8 323.9,240.7 		"/>
		<path class="st0" d="M324.7,243.8c-0.9-0.4-1.8-0.8-2.8-1c1,0,2,0,3,0.1L324.7,243.8L324.7,243.8z"/>
		<polygon class="st0" points="326,248.2 323.1,247.1 326.2,247.3 326,248.2 		"/>
		<polygon class="st0" points="327,251.5 324,250.6 327.1,250.6 327,251.5 		"/>
		<path class="st0" d="M303.9,220.1c-1.3-0.7-2.6-1.3-4-1.7c1.5,0.1,2.9,0.4,4.4,0.8L303.9,220.1L303.9,220.1z"/>
		<path class="st0" d="M303.8,222.3c-0.8-0.6-1.8-1.1-2.9-1.3c1.1-0.1,2.2,0.1,3.3,0.5L303.8,222.3L303.8,222.3z"/>
		<polygon class="st0" points="304.1,224.4 301.5,223.6 304.2,223.5 304.1,224.4 		"/>
		<path class="st0" d="M304.4,227c-0.9-0.5-2-0.8-3-1.1c1.1-0.1,2.2,0,3.3,0.2L304.4,227L304.4,227z"/>
		<path class="st0" d="M304.8,230.2c-1-0.7-2.2-1.1-3.5-1.3c1.3-0.1,2.6,0.1,3.9,0.5L304.8,230.2L304.8,230.2z"/>
		<polygon class="st0" points="305.6,233.5 302.7,232.4 305.8,232.6 305.6,233.5 		"/>
		<path class="st0" d="M306.7,238c-0.9-0.6-2-0.9-3.1-1c1.1-0.2,2.3-0.2,3.5,0.1L306.7,238L306.7,238z"/>
		<path class="st0" d="M307.5,241.4c-1-0.7-2.2-1.2-3.4-1.5c1.3,0,2.6,0.2,3.8,0.7L307.5,241.4L307.5,241.4z"/>
		<path class="st0" d="M308.5,245c-0.7-0.3-1.4-0.5-2.2-0.6c0.7-0.2,1.6-0.4,2.4-0.4L308.5,245L308.5,245z"/>
		<polygon class="st0" points="309.6,249 306.6,248.5 309.7,248.1 309.6,249 		"/>
		<path class="st0" d="M310.5,252.1c-1.1-0.3-2.2-0.5-3.4-0.4c1.1-0.4,2.3-0.6,3.5-0.5L310.5,252.1L310.5,252.1z"/>
		<path class="st0" d="M311.9,256.8c-0.8-0.3-1.8-0.4-2.7-0.5c0.9-0.3,1.8-0.5,2.8-0.5L311.9,256.8L311.9,256.8z"/>
		<path class="st0" d="M312.9,261.2c-0.3-0.3-0.8-0.6-1.4-0.6c0.5-0.3,1.1-0.4,1.8-0.3L312.9,261.2L312.9,261.2z"/>
		<path class="st0" d="M287.9,219.1c-0.7-0.7-1.5-1.2-2.5-1.5c1,0,2.1,0.3,3,0.7L287.9,219.1L287.9,219.1z"/>
		<polygon class="st0" points="288,221.2 285.8,220 288.3,220.3 288,221.2 		"/>
		<path class="st0" d="M288.4,223.9c-1.5-0.9-3.1-1.6-4.8-2c1.8,0.1,3.5,0.5,5.2,1.2L288.4,223.9L288.4,223.9z"/>
		<path class="st0" d="M288.5,226.8c-0.9-0.7-2-1.2-3.2-1.5c1.2,0,2.5,0.2,3.6,0.7L288.5,226.8L288.5,226.8z"/>
		<polygon class="st0" points="288.9,229.4 286.5,228.1 289.2,228.5 288.9,229.4 		"/>
		<path class="st0" d="M289.5,232.5c-0.7-0.6-1.7-1-2.7-1.2c1-0.2,2.1-0.1,3.2,0.4L289.5,232.5L289.5,232.5z"/>
		<path class="st0" d="M290.2,235.2c-0.8-0.5-1.7-1-2.7-1.3c1,0,2,0.2,3,0.4L290.2,235.2L290.2,235.2z"/>
		<path class="st0" d="M291.1,238.7c-0.8-0.6-1.7-1-2.7-1.3c1,0,2.1,0.1,3.2,0.5L291.1,238.7L291.1,238.7z"/>
		<polygon class="st0" points="291.9,242.5 288.4,241.5 292.1,241.5 291.9,242.5 		"/>
		<polygon class="st0" points="292.9,246.1 290.7,245.7 292.9,245.1 292.9,246.1 		"/>
		<path class="st0" d="M293.5,248.5c-1.2-0.3-2.5-0.4-3.8-0.3c1.3-0.3,2.6-0.5,3.9-0.6L293.5,248.5L293.5,248.5z"/>
		<path class="st0" d="M294.3,252.2c-1.1-0.2-2.3-0.2-3.5-0.1c1.1-0.5,2.3-0.8,3.6-0.9L294.3,252.2L294.3,252.2z"/>
		<polygon class="st0" points="295.6,255.4 293.1,255.7 295.4,254.5 295.6,255.4 		"/>
		<path class="st0" d="M296.3,258.6c-1,0.2-2,0.3-3,0.4c0.9-0.4,1.8-0.8,2.6-1.3L296.3,258.6L296.3,258.6z"/>
		<path class="st0" d="M271,222c-1.9-0.4-3.8-0.7-5.7-0.9c1.9-0.2,3.9-0.2,5.9,0L271,222L271,222z"/>
		<path class="st0" d="M271.3,225.3c-1.3-0.3-2.5-0.6-3.8-0.8c1.3-0.1,2.6-0.2,4-0.2L271.3,225.3L271.3,225.3z"/>
		<path class="st0" d="M271.6,228.2c-1.2-0.3-2.4-0.5-3.6-0.6c1.2-0.2,2.5-0.3,3.7-0.4L271.6,228.2L271.6,228.2z"/>
		<polygon class="st0" points="271.8,230.5 267.8,230.1 271.8,229.5 271.8,230.5 		"/>
		<path class="st0" d="M272.6,233.2c-1.8-0.1-3.6-0.1-5.4,0.1c1.7-0.5,3.5-0.9,5.3-1.1L272.6,233.2L272.6,233.2z"/>
		<path class="st0" d="M272.8,236.4c-1.2,0-2.5,0-3.7,0.2c1.2-0.5,2.4-0.9,3.7-1.1L272.8,236.4L272.8,236.4z"/>
		<path class="st0" d="M273.4,239.9c-1.4,0-2.9,0.1-4.3,0.3c1.4-0.5,2.8-0.9,4.2-1.2L273.4,239.9L273.4,239.9z"/>
		<polygon class="st0" points="274.5,244 272.5,244.1 274.3,243.1 274.5,244 		"/>
		<polygon class="st0" points="275.9,248.7 272.2,249.2 275.6,247.8 275.9,248.7 		"/>
	</g>
	<g>
		<path class="st0" d="M240.6,268.4c-0.6,0.9-1.5,1.2-2.5,0.8C238.7,268.4,239.5,268.1,240.6,268.4L240.6,268.4z"/>
		<path class="st0" d="M241.8,272.4c-0.8,0.9-1.8,1.3-3,1C239.7,272.4,240.7,272.1,241.8,272.4L241.8,272.4z"/>
		<path class="st0" d="M242.8,275.7c-0.9,1-2,1.3-3.3,1.1C240.4,275.8,241.5,275.5,242.8,275.7L242.8,275.7z"/>
		<path class="st0" d="M244.4,278.8c-1.3,1.3-3.2,1.9-5,1.6C241,279.4,242.5,278.9,244.4,278.8L244.4,278.8z"/>
		<path class="st0" d="M244.8,283.1c-1.6,1.2-3.4,1.7-5.3,1.7C241.1,283.6,242.9,283.1,244.8,283.1L244.8,283.1z"/>
		<path class="st0" d="M247.1,288.4c-0.9,1-2,1.4-3.4,1.2C244.6,288.7,245.7,288.2,247.1,288.4L247.1,288.4z"/>
		<path class="st0" d="M249.6,298.3c-0.8,0.8-1.7,1-2.7,0.6C247.6,298.1,248.6,297.9,249.6,298.3L249.6,298.3z"/>
		<path class="st0" d="M250.7,302.7c-0.8,1-1.9,1.5-3.2,1.3C248.3,302.9,249.4,302.5,250.7,302.7L250.7,302.7z"/>
		<path class="st0" d="M252.6,307.6c-0.9,1-2.1,1.5-3.5,1.3C250,307.8,251.2,307.4,252.6,307.6L252.6,307.6z"/>
		<path class="st0" d="M259,274.9c-0.4,0.8-1.1,1-1.9,0.6C257.5,274.7,258.2,274.5,259,274.9L259,274.9z"/>
		<path class="st0" d="M260.2,278.2c-1,1-2.2,1.4-3.5,1.2C257.7,278.4,258.9,278,260.2,278.2L260.2,278.2z"/>
		<path class="st0" d="M261.8,282.1c-0.8,1-1.9,1.4-3.2,1.2C259.5,282.3,260.5,281.9,261.8,282.1L261.8,282.1z"/>
		<path class="st0" d="M264.6,289.6c-0.4,0.9-1.1,1.1-2,0.8C263,289.5,263.7,289.3,264.6,289.6L264.6,289.6z"/>
		<path class="st0" d="M268.9,300.4c-1,1-2.3,1.4-3.7,1.2C266.2,300.6,267.5,300.2,268.9,300.4L268.9,300.4z"/>
		<path class="st0" d="M270.2,305c-1.6,1.2-3.4,1.8-5.3,1.7C266.5,305.6,268.3,305,270.2,305L270.2,305z"/>
		<path class="st0" d="M267.6,311.5c1.4-0.2,2.7-0.7,3.9-1.7c-1.8,0-3.4,0.5-4.8,1.7C267,311.5,267.3,311.5,267.6,311.5z"/>
		<path class="st0" d="M273.6,267.2c0,0.7-0.4,1-1.1,0.7C272.6,267.1,273,266.8,273.6,267.2L273.6,267.2z"/>
		<path class="st0" d="M276.5,272.9c-0.2,0.7-0.6,0.9-1.2,0.4C275.5,272.6,275.9,272.4,276.5,272.9L276.5,272.9z"/>
		<path class="st0" d="M279.7,279.9c-1.1,1-2.4,1.4-3.8,1.2C277,280.1,278.3,279.7,279.7,279.9L279.7,279.9z"/>
		<path class="st0" d="M282.1,286.1c-1.8,1.3-3.8,2.1-6,2.2C277.9,287,279.9,286.3,282.1,286.1L282.1,286.1z"/>
		<path class="st0" d="M285.2,292.3c-2,1.5-4.3,2.5-6.8,2.9C280.5,293.6,282.8,292.7,285.2,292.3L285.2,292.3z"/>
		<path class="st0" d="M286.2,298.7c-1.7,1.2-3.7,1.8-5.8,1.7C282.1,299.3,284.1,298.7,286.2,298.7L286.2,298.7z"/>
		<path class="st0" d="M290.4,305.7c-1,1.1-2.3,1.5-3.8,1.4C287.6,306,288.9,305.5,290.4,305.7L290.4,305.7z"/>
		<path class="st0" d="M285.8,241.4c-0.6,0.8-1.5,1-2.4,0.6C284,241.2,284.8,241,285.8,241.4L285.8,241.4z"/>
		<path class="st0" d="M289.7,254.4c-0.6,0.8-1.5,1-2.4,0.6C287.9,254.2,288.7,254,289.7,254.4L289.7,254.4z"/>
		<path class="st0" d="M291.3,261c-0.6,0.9-1.4,1.2-2.5,1C289.4,261.1,290.3,260.8,291.3,261L291.3,261z"/>
		<path class="st0" d="M300.9,291.3c0,0.7-0.2,0.7-0.6,0.2C300.3,290.8,300.6,290.8,300.9,291.3L300.9,291.3z"/>
		<path class="st0" d="M306.6,294.1c-2.1,1.5-4.5,2.3-7,2.6C301.7,295.2,304,294.4,306.6,294.1L306.6,294.1z"/>
		<path class="st0" d="M305.9,298.2c-1.4,1.5-3.4,2.2-5.4,2C302.3,299.2,303.9,298.5,305.9,298.2L305.9,298.2z"/>
		<path class="st0" d="M307.7,304.1c-0.4,0.9-1.1,1.1-2,0.8C306.1,304.1,306.8,303.8,307.7,304.1L307.7,304.1z"/>
		<path class="st0" d="M310.3,266.4c-0.7,0.9-1.6,1.3-2.8,1.1C308.2,266.5,309.2,266.1,310.3,266.4L310.3,266.4z"/>
		<path class="st0" d="M311,271.5c-0.5,0.9-1.4,1.3-2.4,1.1C309.1,271.7,310,271.3,311,271.5L311,271.5z"/>
		<path class="st0" d="M313.3,277c0.2,0.8-0.7,1.3-1.4,0.8C312.3,277,312.4,277,313.3,277L313.3,277z"/>
		<path class="st0" d="M318.1,284.9c-1,1-2.3,1.4-3.7,1.2C315.5,285.1,316.7,284.7,318.1,284.9L318.1,284.9z"/>
		<path class="st0" d="M319.4,288.9c-1.6,1.2-3.4,1.9-5.4,1.9C315.6,289.6,317.4,288.9,319.4,288.9L319.4,288.9z"/>
		<path class="st0" d="M321.2,294.9c-0.8,1.1-1.9,1.7-3.2,1.7C318.8,295.4,319.9,294.9,321.2,294.9L321.2,294.9z"/>
		<path class="st0" d="M324.4,301.5c-0.8,1.8-2.9,2.9-4.8,2.5C321.3,303.1,322.6,302.4,324.4,301.5L324.4,301.5z"/>
		<path class="st0" d="M327,307.3c-0.5,1.1-1.5,1.7-2.7,1.8C324.9,307.9,325.8,307.3,327,307.3L327,307.3z"/>
		<path class="st0" d="M313.3,281.6c-0.6,0.9-1.5,1.2-2.5,0.9C311.4,281.6,312.3,281.3,313.3,281.6L313.3,281.6z"/>
		<path class="st0" d="M307.1,259.5c-0.9,0.9-2,1.1-3.2,0.8C304.8,259.3,305.9,259.1,307.1,259.5L307.1,259.5z"/>
		<path class="st0" d="M342.5,302.5c0.1,1.7-1,3.2-2.6,3.7C340.7,304.7,341.4,303.7,342.5,302.5L342.5,302.5z"/>
		<path class="st0" d="M340.7,296.9c0.2,0.9-0.2,1.5-1,1.8C339.4,297.8,339.8,297.2,340.7,296.9L340.7,296.9z"/>
		<path class="st0" d="M337.4,302c-0.3,1.3-1.5,2.1-2.8,1.9C335.4,302.9,336.2,302.4,337.4,302L337.4,302z"/>
		<path class="st0" d="M338.5,293.6c-0.8,1.5-2,2.6-3.6,3.1C335.6,295.2,336.9,294.1,338.5,293.6L338.5,293.6z"/>
		<path class="st0" d="M336,287.1c-0.1,1.6-1.7,3-3.4,2.7C333.9,288.8,334.7,288.1,336,287.1L336,287.1z"/>
		<path class="st0" d="M333.5,281.5c-0.7,0.9-1.6,1.3-2.8,1.1C331.5,281.6,332.4,281.3,333.5,281.5L333.5,281.5z"/>
		<path class="st0" d="M331,277.1c-0.8,0.9-1.9,1.3-3.1,1C328.7,277.2,329.8,276.9,331,277.1L331,277.1z"/>
		<path class="st0" d="M324.6,272.2c-0.7,0.9-1.6,1.2-2.7,0.9C322.6,272.1,323.6,271.9,324.6,272.2L324.6,272.2z"/>
		<path class="st0" d="M325.6,266.6c-0.9,0.8-2.1,1-3.2,0.6C323.3,266.4,324.4,266.2,325.6,266.6L325.6,266.6z"/>
		<path class="st0" d="M324.4,259.5c-0.6,0.8-1.4,0.9-2.2,0.4C322.9,259.1,323.6,259,324.4,259.5L324.4,259.5z"/>
		<path class="st0" d="M320.5,254.9c-0.3,0.6-0.5,0.5-0.5-0.2C320.3,254.2,320.5,254.2,320.5,254.9L320.5,254.9z"/>
		<path class="st0" d="M351.8,282.5c0.6,1.5-0.1,3.4-1.6,4C350.7,284.9,351.1,283.9,351.8,282.5L351.8,282.5z"/>
		<path class="st0" d="M348.6,288.7c-0.3,1-1.1,1.5-2.1,1.5C346.8,289.2,347.6,288.7,348.6,288.7L348.6,288.7z"/>
		<path class="st0" d="M348.3,280c-0.1,1.7-1.5,3.2-3.2,3.4C346.1,282.1,347,281.2,348.3,280L348.3,280z"/>
		<path class="st0" d="M345.3,275.4c-0.3,0.9-1,1.3-1.9,1.1C343.7,275.6,344.3,275.2,345.3,275.4L345.3,275.4z"/>
		<path class="st0" d="M342.5,270c-0.4,0.9-1.1,1.1-2,0.8C340.9,269.9,341.6,269.6,342.5,270L342.5,270z"/>
		<path class="st0" d="M341.6,261.1c-0.7,1-1.7,1.3-2.9,1.1C339.4,261.2,340.4,260.8,341.6,261.1L341.6,261.1z"/>
		<path class="st0" d="M339.1,258.3c-1.2,1-2.5,1.4-4,1.2C336.2,258.5,337.6,258.1,339.1,258.3L339.1,258.3z"/>
		<path class="st0" d="M336.4,252.2c-0.5,0.8-1.3,1-2.1,0.5C334.8,251.9,335.6,251.7,336.4,252.2L336.4,252.2z"/>
		<path class="st0" d="M351.7,254.9c-0.2,0.8-0.7,1-1.4,0.6C350.5,254.7,351,254.5,351.7,254.9L351.7,254.9z"/>
		<path class="st0" d="M353.6,258.7c-0.5,1.2-1.4,2-2.7,2.2C351.4,259.7,352.3,258.9,353.6,258.7L353.6,258.7z"/>
		<path class="st0" d="M355,263.5c-0.2,1.5-1.8,2.7-3.3,2.4C352.8,264.9,353.7,264.3,355,263.5L355,263.5z"/>
		<path class="st0" d="M357.4,267.9c-0.3,2.2-1.9,4.1-4,4.7C354.7,270.9,355.9,269.5,357.4,267.9L357.4,267.9z"/>
		<path class="st0" d="M355.8,274.2c-0.4,0.9-1.1,1.3-2.1,1.1C354.1,274.4,354.9,274,355.8,274.2L355.8,274.2z"/>
		<path class="st0" d="M226.3,301.6c-1.3,0-2.4-0.6-3-1.8C224.6,299.9,225.7,300.5,226.3,301.6L226.3,301.6z"/>
		<path class="st0" d="M229.9,306.9c-1.8,0.1-3.4-0.5-4.7-1.6C227,305.2,228.6,305.8,229.9,306.9L229.9,306.9z"/>
		<path class="st0" d="M230.4,311.6c-1.3,0.1-2.4-0.3-3.2-1.4C228.5,310.1,229.6,310.5,230.4,311.6L230.4,311.6z"/>
	</g>
	<g>
		<path class="st0" d="M264.7,309.5c-1.8,0.3-3.6,0.4-5.4,0.1C261.1,309.2,262.9,309.2,264.7,309.5L264.7,309.5z"/>
		<path class="st0" d="M261.3,303.5c-0.4,0.5-0.9,0.6-1.5,0.5C260.2,303.6,260.7,303.4,261.3,303.5L261.3,303.5z"/>
		<path class="st0" d="M259.7,292.2c-1,0.8-2.1,1.4-3.4,1.6C257.3,293,258.4,292.5,259.7,292.2L259.7,292.2z"/>
		<path class="st0" d="M242.6,310.4c-0.9,0.3-1.8,0.2-2.7-0.1C240.8,310,241.7,310.1,242.6,310.4L242.6,310.4z"/>
		<path class="st0" d="M244.5,304.2c-1.4,0.6-2.9,0.8-4.5,0.8C241.4,304.4,242.9,304.2,244.5,304.2L244.5,304.2z"/>
		<path class="st0" d="M243,300.8c-1,0.5-2.1,0.8-3.2,0.7C240.8,301,241.9,300.7,243,300.8L243,300.8z"/>
		<path class="st0" d="M237.9,304.6c-0.3,0.4-0.8,0.5-1.2,0.2C237,304.4,237.4,304.3,237.9,304.6L237.9,304.6z"/>
		<path class="st0" d="M238.9,298c-0.9,0.6-1.8,0.8-2.9,0.8C236.9,298.3,237.9,298,238.9,298L238.9,298z"/>
		<path class="st0" d="M235.6,293.5c-0.5,0.2-1,0.2-1.4-0.2C234.8,293.1,235.2,293.2,235.6,293.5L235.6,293.5z"/>
		<path class="st0" d="M235.2,287.6c-0.5,0.3-1.1,0.3-1.6,0C234.1,287.4,234.6,287.3,235.2,287.6L235.2,287.6z"/>
		<path class="st0" d="M270.9,259.9c-0.3,0.4-0.8,0.6-1.3,0.4C270,259.9,270.4,259.7,270.9,259.9L270.9,259.9z"/>
		<path class="st0" d="M238.2,262.6c-1.5,0.6-2.9,1.3-4.4,2C234.9,263.4,236.5,262.6,238.2,262.6L238.2,262.6z"/>
		<path class="st0" d="M233.4,269.6c-1.3,0.5-2.3,1.1-3.2,2.2C230.5,270.4,232,269.4,233.4,269.6L233.4,269.6z"/>
		<path class="st0" d="M256.1,266c-1.4,0.8-2.8,1.3-4.4,1.6C253.1,266.7,254.5,266.2,256.1,266L256.1,266z"/>
		<path class="st0" d="M269.1,249.5c-1.7,0.6-3.2,1.1-4.8,1.7C265.5,250.1,267.3,249.4,269.1,249.5L269.1,249.5z"/>
		<path class="st0" d="M302.5,306.3c-0.8,0.5-1.7,0.8-2.7,0.7C300.6,306.5,301.6,306.3,302.5,306.3L302.5,306.3z"/>
		<path class="st0" d="M295.3,295.5c-0.4,0.5-1,0.7-1.6,0.5C294.1,295.6,294.7,295.4,295.3,295.5L295.3,295.5z"/>
		<path class="st0" d="M288.4,249.1c-1.4,0.7-2.8,1.1-4.3,1.2C285.5,249.6,286.9,249.2,288.4,249.1L288.4,249.1z"/>
		<path class="st0" d="M283.2,246.5c-1.7,0.4-3.3,0.8-5,1.1C279.6,246.7,281.5,246.3,283.2,246.5L283.2,246.5z"/>
		<path class="st0" d="M296.7,286.8c-0.5,0.9-1.6,1.5-2.6,1.4C295,287.7,295.8,287.3,296.7,286.8L296.7,286.8z"/>
		<path class="st0" d="M322.3,309.4c-0.8,0.6-1.6,1-2.6,1C320.5,309.8,321.3,309.4,322.3,309.4L322.3,309.4z"/>
		<path class="st0" d="M320.1,299.5c-1.7,1-3.4,1.8-5.3,2.2C316.4,300.7,318.2,300,320.1,299.5L320.1,299.5z"/>
		<path class="st0" d="M314.7,292.9c-0.5,0.5-1.1,0.8-1.9,0.8C313.3,293.1,314,292.9,314.7,292.9L314.7,292.9z"/>
		<path class="st0" d="M308.3,277.3c-0.7,0.6-1.5,0.8-2.4,0.8C306.6,277.5,307.4,277.3,308.3,277.3L308.3,277.3z"/>
		<path class="st0" d="M303.5,262c-0.8,0.6-1.7,0.9-2.7,0.9C301.6,262.3,302.5,262,303.5,262L303.5,262z"/>
		<path class="st0" d="M304.1,254.2c-1.1,0.1-1.9,0.3-2.9,0.6C301.8,253.9,303.1,253.6,304.1,254.2L304.1,254.2z"/>
		<path class="st0" d="M334.7,298.8c-0.5,1.5-2.1,2.7-3.7,2.8C332.5,300.8,333.6,300,334.7,298.8L334.7,298.8z"/>
		<path class="st0" d="M338,291c-1.9,3.3-5.5,5.5-9.3,5.8C332.3,295.8,335.5,293.8,338,291L338,291z"/>
		<path class="st0" d="M339.5,304.8c-0.8,1-2.2,1.7-3.6,1.6C337.1,305.8,338.2,305.3,339.5,304.8L339.5,304.8z"/>
		<path class="st0" d="M340.6,308.7c-0.5,1-1.7,1.5-2.7,1.2C338.8,309.5,339.6,309.2,340.6,308.7L340.6,308.7z"/>
		<path class="st0" d="M328.3,281.9c-0.9,1.1-2.4,1.8-3.8,1.7C325.8,283.1,327,282.6,328.3,281.9L328.3,281.9z"/>
		<path class="st0" d="M331.8,287.8c-1.3,1.4-3.3,2.3-5.2,2.2C328.5,289.4,330.1,288.7,331.8,287.8L331.8,287.8z"/>
		<path class="st0" d="M331,270.1c-0.9,0.6-1.9,0.9-3,1C328.9,270.5,329.9,270.1,331,270.1L331,270.1z"/>
		<path class="st0" d="M319.6,259.7c-0.9,0.7-1.9,1.1-3.1,1.2C317.4,260.2,318.5,259.8,319.6,259.7L319.6,259.7z"/>
		<path class="st0" d="M347,277.5c-1,2-3.3,3.5-5.6,3.4C343.6,280.3,345.4,279.2,347,277.5L347,277.5z"/>
		<path class="st0" d="M343,273.4c-0.7,0.9-1.8,1.4-2.9,1.3C341.1,274.1,342,273.8,343,273.4L343,273.4z"/>
		<path class="st0" d="M343.2,264.9c-1.5,1-3,1.6-4.7,2C339.9,265.9,341.5,265.3,343.2,264.9L343.2,264.9z"/>
		<path class="st0" d="M351,290.4c-1,1.3-2.3,2.4-3.7,3.2C348.3,292.3,349.6,291.3,351,290.4L351,290.4z"/>
		<path class="st0" d="M351.2,246.9c-0.8,0.2-1.5,0.1-2.2-0.3C349.8,246.4,350.5,246.5,351.2,246.9L351.2,246.9z"/>
		<path class="st0" d="M351.1,250.5c-1.7-0.2-3.2-0.2-4.8,0.3C347.6,249.8,349.7,249.6,351.1,250.5L351.1,250.5z"/>
		<path class="st0" d="M354.5,256c-0.2,0.5-0.6,0.6-1.1,0.5C353.6,256,354,255.9,354.5,256L354.5,256z"/>
		<path class="st0" d="M355.9,260.4c-1.2,1.4-2.9,2.3-4.7,2.5C352.8,262.1,354.3,261.3,355.9,260.4L355.9,260.4z"/>
		<path class="st0" d="M355.4,266.4c-0.6,1.3-1.9,2.4-3.4,2.7C353.3,268.2,354.3,267.4,355.4,266.4L355.4,266.4z"/>
	</g>
</g>
<path class="st0" d="M289.4,268.8c-4.1,1.2-4.5,5.7-3,9.1c1.5,4.4,4.5,5.8,8.7,3.5C302.8,276.8,298.3,265.8,289.4,268.8L289.4,268.8
	z M289.3,268.7c2.8-1,6.3-1.6,8.8,0.5c2.6,2.1,3.1,6,1.7,8.9c-1.8,3.8-6.4,5.8-10.4,4.7c-2-0.7-3.3-2.4-4.3-4.2
	C283,274.4,284.8,270,289.3,268.7L289.3,268.7z"/>
<path class="st0" d="M292.5,269c-2.6,0.1-5.1,2-5.8,4.6c-0.7,2.6,0.3,5.7,2.5,7.2c2.2,1.6,5.3,1.6,7.4,0.1
	C301.6,277.2,298.7,268.8,292.5,269z"/>
<g>
	<line class="st1" x1="166.6" y1="311.8" x2="405.9" y2="311.8"/>
	<line class="st1" x1="140.6" y1="311.8" x2="159.7" y2="311.8"/>
	<line class="st1" x1="84.6" y1="311.8" x2="133.7" y2="311.8"/>
	<line class="st1" x1="67.6" y1="311.8" x2="76.7" y2="311.8"/>
	<line class="st1" x1="485.1" y1="311.8" x2="504.3" y2="311.8"/>
	<line class="st1" x1="429.1" y1="311.8" x2="478.2" y2="311.8"/>
	<line class="st1" x1="412.1" y1="311.8" x2="421.2" y2="311.8"/>
	<path class="st2" d="M515.9,320.8h-462c-2.4,0-4.3-1.9-4.3-4.3v-0.1c0-2.4,1.9-4.3,4.3-4.3h462c2.4,0,4.3,1.9,4.3,4.3v0.1
		C520.2,318.9,518.3,320.8,515.9,320.8z"/>
	<path class="st2" d="M40.9,320.8H4.3c-2.4,0-4.3-1.9-4.3-4.3v0c0-2.4,1.9-4.3,4.3-4.3h36.6c2.4,0,4.3,1.9,4.3,4.3v0
		C45.2,318.9,43.3,320.8,40.9,320.8z"/>
	<path class="st2" d="M544.6,320.8H528c-2.4,0-4.3-1.9-4.3-4.3v0c0-2.4,1.9-4.3,4.3-4.3h16.6c2.4,0,4.3,1.9,4.3,4.3v0
		C548.9,318.9,547,320.8,544.6,320.8z"/>
	<path class="st2" d="M562.2,320.8h-4.6c-2.4,0-4.3-1.9-4.3-4.3v0c0-2.4,1.9-4.3,4.3-4.3h4.6c2.4,0,4.3,1.9,4.3,4.3v0
		C566.6,318.9,564.6,320.8,562.2,320.8z"/>
</g>
<g>
	<path class="st3" d="M207.8,118.1c0-10.6,8.4-18.4,19.8-18.4s19.8,7.7,19.8,18.4s-8.4,18.4-19.8,18.4S207.8,128.7,207.8,118.1z
		 M235.5,118.1c0-5.5-3.5-8.8-7.9-8.8c-4.4,0-7.9,3.3-7.9,8.8s3.5,8.8,7.9,8.8C232,126.9,235.5,123.6,235.5,118.1z"/>
	<path class="st3" d="M284.6,113.8c0,8.1-6.2,13.2-16,13.2h-5.1v8.6h-11.8v-35.1h16.9C278.4,100.5,284.6,105.7,284.6,113.8z
		 M272.7,113.8c0-2.6-1.6-4.1-4.8-4.1h-4.3v8.2h4.3C271.1,117.9,272.7,116.3,272.7,113.8z"/>
	<path class="st3" d="M321.4,113.8c0,8.1-6.2,13.2-16,13.2h-5.1v8.6h-11.8v-35.1h16.9C315.2,100.5,321.4,105.7,321.4,113.8z
		 M309.5,113.8c0-2.6-1.6-4.1-4.8-4.1h-4.3v8.2h4.3C307.9,117.9,309.5,116.3,309.5,113.8z"/>
	<path class="st3" d="M323.6,132.8l3.8-8.6c3.3,2,7.7,3.2,11.6,3.2c3.4,0,4.6-0.7,4.6-1.9c0-4.4-19.4-0.9-19.4-13.9
		c0-6.5,5.5-11.8,16.4-11.8c4.7,0,9.6,1,13.2,3.1l-3.6,8.6c-3.5-1.8-6.7-2.6-9.8-2.6c-3.5,0-4.6,1-4.6,2.2c0,4.2,19.4,0.7,19.4,13.6
		c0,6.4-5.5,11.8-16.4,11.8C333,136.5,327.1,135,323.6,132.8z"/>
	<path class="st3" d="M357,100.5h13.5l-2.3,21.7h-9L357,100.5z M357.1,130.1c0-3.4,2.7-5.9,6.6-5.9s6.6,2.6,6.6,5.9
		c0,3.3-2.7,6-6.6,6S357.1,133.4,357.1,130.1z"/>
</g>
<g>
	<path class="st0" d="M296.1,66.8c-1.1-4.8-0.9-9.9,0.4-14.7l-7.1-1.1c2,5.1,1.4,11.1-1.5,15.7c0.6,0,1.9-0.7,1.9-0.7
		s0.6,1.2,1.1,1.2c0.7,0,1-1.1,1.8-1.1c0.4,0,0.9,1.4,1.4,1.4C294.5,67.5,295.6,66.8,296.1,66.8z M291.4,60.5
		c-0.1,1.5-0.4,2.9-0.8,4.3L291.4,60.5z M291.5,59l-0.3-6C291.5,55,291.6,57,291.5,59z M292.3,65.5l0.4-8.8
		C292.8,59.6,292.7,62.6,292.3,65.5z M294.9,53.3l-0.6,12C293.9,61.3,294.1,57.2,294.9,53.3z"/>
	<g>
		<path class="st0" d="M147-51c35.2,26.2,63.6,62.8,105.4,79.1c15.3,5.9,32.1,8.7,48.4,5.8c10.8-1.9,21.3-5.7,31.8-9.1
			c5.2-1.8,10.6-3.6,16.1-4.3c8.2-1.2,16.7-1.2,24.9,0c2.2,0.6,7.5,0.3,7,3.6c0,0-0.1,0.2-0.1,0.2c-0.5,0.1-0.9,0-1.4,0
			c-2-0.1-5.9-0.4-7.9-0.5c-15.2-1.7-29.8,4.5-43.2,10.9c-5.4,2.6-10.8,5.4-16.2,8.2l0-0.6c1.5,0.8,2.8,1.8,4.2,2.6
			c9.9,5.3,20.9,10.5,30.6,16c8.6,4.8,17.1,10,25.2,15.7c2.5,2,7.2,4,5.8,8c0,0-0.3,0.7-0.3,0.7c-7-4.7-14.4-8.8-22.2-12
			c0,0,0.8-1.2,0.8-1.2c2,1.8,3.9,3.7,5.6,5.8c4.3,5.2,7.1,11.5,9.1,17.9c0.5,1.4,1,3.7-0.8,4.6c0,0-0.8,0.4-0.8,0.4
			s-0.3-0.8-0.3-0.8c-18-41-77.1-47.4-116-55.3c-22-4.4-44.1-10-63.8-21.1c-19.6-11-35.8-27.3-56.5-36.3C142.6-9,152.3-2,161.5,4.2
			c9.2,6.5,18.2,13.2,28,18.6c9.8,5.4,20.3,9.5,31,12.7c45.2,14.2,107.3,12,141,49.5c3.7,4.3,6.7,9.2,8.8,14.5l-1.1-0.4
			c0.3-0.2,0.4-0.6,0.3-1c-0.2-1.8-1-3.7-1.6-5.5c-1.8-4.9-4.2-9.7-7.5-13.7c-2.4-2.9-5.6-5.8-8.4-8.4c8.9,3.6,17.6,8,25.5,13.4
			c0,0-0.9,0.3-0.9,0.3c0.5-1.3-0.3-2.7-1.4-3.6c-1.2-1-2.6-2-3.9-2.9c-2.7-1.9-5.4-3.8-8.1-5.6c-11-7.2-22.6-13.6-34.3-19.6
			c-5.2-2.6-12.6-6.3-17.3-9.5c0,0-0.6-0.3-0.6-0.3s0.6-0.3,0.6-0.3c16.8-8.4,33.8-18.1,52.9-19.3c4.2,0,11.5,0.6,15.7,0.9
			c0,0-0.2,0.2-0.2,0.2c0.1-0.5-0.2-1.1-0.6-1.5c-1.7-1-4-0.9-5.9-1.3c-2.7-0.4-5.5-0.6-8.2-0.7c-8.2-0.3-16.6,0.5-24.5,2.7
			c-7.9,2.5-15.7,5.4-23.6,7.9c-34.2,12.1-65.6,2.3-94.6-17.4C195.4-5.3,172.5-30.5,147-51L147-51z"/>
		<path class="st0" d="M143-40.4c14.3,14.5,28.1,29.5,44.2,42c17.6,13.2,38,22.5,59.2,28.2c4.5,1.2,10.2,2.5,14.8,3.4
			c6.6,1.3,13.7,1.9,20.2,2.7C224.5,34.7,178.1,1.9,143-40.4L143-40.4z"/>
		<path class="st0" d="M380.1,23.8c-9-4.3-19.7-3.1-29.2-1.4c-9.8,1.9-19.2,5.1-28.5,8.9c-12.4,4.9-24.5,10.7-37.8,13
			c-19.8,3.3-40.5-0.9-59.2-6.7c19.3,4.6,39.2,8.8,59,5.7c13.1-2.2,25.6-7.3,37.8-12.4c12.3-5.2,24.9-10,38.4-10.7
			C367.1,20,374.8,20.2,380.1,23.8L380.1,23.8z"/>
		<path class="st0" d="M312.8,42.3c-2.7,1-5.7,0.8-8.2-0.5c2.5,1.1,5.5,1.1,8,0L312.8,42.3L312.8,42.3z"/>
		<path class="st0" d="M299.4,52.5c26.2,0,51.6,14.5,65,37.1c0,0-0.9,0.6-0.9,0.6C350.6,67.6,325.5,52.9,299.4,52.5L299.4,52.5z"/>
		<path class="st0" d="M173.5,13.2c17.2-1,34.8,7.4,44.8,21.8l-0.9,0.6C207.9,21.4,190.7,12.6,173.5,13.2
			C173.5,13.2,190.7,12.6,173.5,13.2z"/>
		<path class="st0" d="M209.6,32.2c-2.5-2.2-4.8-4.4-7.5-6.4c-4.8-2.7-10.3-3.5-15.6-4.3c0,0,0-0.1,0-0.1c5.6-1.2,11.2,1.1,15.8,4.1
			c0.8,0.5,2.1,1.1,2.9,1.7C207.1,28.5,208.6,30.2,209.6,32.2L209.6,32.2L209.6,32.2z"/>
		<path class="st0" d="M262.8,32.9c-23.3-4.7-45.7-13.5-65.9-25.9c20.4,12.1,42.8,20.5,66.1,24.8L262.8,32.9L262.8,32.9z"/>
		<path class="st0" d="M134.7-18.4c10.8,6.2,19.7,15.1,29,23.4c3,2.8,5.8,5.9,9.5,7.8c0,0,0,0,0,0c-3.9-1.6-6.9-4.7-9.9-7.5
			c-3.1-2.8-6-5.7-9-8.5C148.3-8.8,141.2-13.6,134.7-18.4L134.7-18.4z"/>
	</g>
	<path class="st4" d="M262,21.7c0.2,3.8,0.5,6.5-0.6,10.2"/>
	<path class="st4" d="M276.2,24.7c-3.4,4.4-6.1,5.7-11,8.4"/>
	<path class="st4" d="M278.9,32.7c-1.7,1-3.6,1.6-5.5,2"/>
	<path class="st4" d="M374,16c0.2,1.7-0.1,3.4-0.8,4.9"/>
	<path class="st4" d="M378,16.9c-1.4,1-2.5,2.4-3.3,4"/>
	<path class="st4" d="M354.6,90.9c2.6-1.5,4.3-4.4,4.2-7.4"/>
	<path class="st4" d="M361.5,96.4c1.1-3.3,1-7-0.2-10.3"/>
	<path class="st4" d="M369.1,75.5c1.8-0.3,2.1-0.2,3.6-1.2"/>
	<path class="st4" d="M371.7,77.2c1.4-0.9,3.1-1.3,4.7-1.1"/>
	<path class="st0" d="M266.1,18.1c-1.3-1.9-3.1-3.4-4.9-4.8c-1,2.6-2.4,5.1-3.9,7.4c-0.9,1.4-2,2.9-1.7,4.5c0.3,1.8,2.2,2.7,3.8,2.3
		c0.8-0.2,1.4-0.6,2.2-0.7c1.2-0.1,2.1,0.5,3.2,0.6c1.4,0.1,2.5-1.4,2.8-2.8C268,22.4,267.3,20,266.1,18.1z M262.4,24.9
		c0.5-3,0.4-5.9-0.4-8.9C263.5,18.7,263.6,22.1,262.4,24.9z"/>
	<path class="st0" d="M281.6,12.9c-2.5,2-4.9,4-7.4,5.9c-1.4,1.1-3.9,3.5-2.4,5.5c0.9,1.2,4.4,1.5,5.7,1.9c0.7,0.2,1.6,0.5,2.3,0.3
		c1.3-0.3,1.9-1.8,2.2-3.1C282.9,19.9,282.7,16.2,281.6,12.9z M276.7,24.3c1.6-2.8,2.8-5.5,3.9-8.5C280.3,19,278.9,22,276.7,24.3z"
		/>
	<path class="st0" d="M280.7,29.2c-1.3,0.5-3.9,2.1-3.9,3.7c0,1.7,2.3,2.3,3.6,2c1.5-0.3,2.8-1.4,3.7-2.7c0.9-1.3,1.3-2.8,1.8-4.3
		C284.1,28.2,282.3,28.5,280.7,29.2z M278.3,33.5c1.9-1,3.5-2,5.2-3.3C282.5,32,280.5,33.3,278.3,33.5z"/>
	<path class="st0" d="M376.2,10.2c-1.1-2.6-2.9-4.8-4.6-7c-0.9,2-1.8,3.9-2.4,6c-0.5,2.1-0.6,4.4,0.2,6.4c0.4,1,0.9,1.9,1.8,2.4
		c0.9,0.5,2.1,0.6,2.9,0c1,2.3,3-0.1,3.3-1.4C377.7,14.5,377.1,12.1,376.2,10.2z M373.5,16.2c-0.2-3.1-0.7-6.1-1.5-9.1
		C373.5,9.8,374.1,13.1,373.5,16.2z"/>
	<path class="st0" d="M381.2,11.3c-2.3,0.7-8,5.6-4.2,7.7c0.8,0.5,1.8,0.6,2.7,0.5c4.5-0.3,8.6-3.9,9.5-8.3
		C386.5,10.9,383.8,10.5,381.2,11.3z M378.1,17.4c2.2-2.3,5.1-3.9,8.2-4.4C383.5,14.2,380.8,15.7,378.1,17.4z"/>
	<path class="st0" d="M375.4,68c-1.9,0.5-4.9,1.9-5.9,3.7c-0.5,0.9-0.6,1.5,0.3,2.3c0.2,0.1,2.4,1.1,2.4,0.5
		c0.1,0.7,0.6,1.4,1.3,1.7s1.4,0.3,2.2,0.2c1.9-0.3,3.5-1.4,4.7-2.9c1.2-1.4,2.1-3.1,2.9-4.8C380.9,67.7,378,67.4,375.4,68z
		 M372.9,74c2.6-1.5,5.1-3,7.7-4.4C378.5,71.7,375.8,73.2,372.9,74z"/>
	<path class="st0" d="M379.7,75.5c-2.9-1.3-8.3,1.2-3.8,3.2c2.2,0.9,4.6,1.3,7,0.9C382.6,77.8,381.4,76.2,379.7,75.5z M376,76.9
		c1.7-0.4,3.7,0.2,4.8,1.5C379.2,77.7,377.8,77.3,376,76.9z"/>
	<path class="st0" d="M356.2,90c-0.8-1.7,0.3-2.5-1.9-3.1c-1.5-0.4-3.2,0-4.4,0.8c-1.9,1.2-3.1,3.3-4.1,5.3c1.9-0.2,3.8-0.1,5.7,0.4
		c1,0.3,2,0.7,3.1,0.6c1.1-0.1,2.2-0.7,2.3-1.8C357,91.5,356.5,90.7,356.2,90z M347.8,91.4c1.8-1.7,4.8-2.1,7-0.9
		C352.3,90.1,350,90.4,347.8,91.4z"/>
	<path class="st0" d="M364.4,95c-0.7-0.7-1.3-0.1-2-0.3c-0.8-0.3-1.4-1.1-2.3-1.4c-0.9-0.4-1.9-0.4-2.7,0.2
		c-1.1,0.8-1.2,2.4-1.1,3.7c0.2,2.4,0.6,4.8,1.4,7.1c2.5-0.8,4.7-2.5,6.2-4.6c0.5-0.7,1-1.5,1.1-2.3C365.2,96.5,365,95.6,364.4,95z
		 M358.9,102.8c1-2,2.3-4.9,3.3-7C361.9,98.4,360.7,100.9,358.9,102.8z"/>
	<g>
		<path class="st0" d="M139.8-24.5c0.9,1.5,1.3,3.2,1.3,5C140.2-21,139.8-22.7,139.8-24.5L139.8-24.5z"/>
		<path class="st0" d="M143-23.1c0.6,2.4,1.2,4.6,2,7C143.4-18,142.7-20.6,143-23.1L143-23.1z"/>
		<path class="st0" d="M146.7-20.2c-0.3,2.7,0,5.2,0.7,7.9C145.7-14.6,145.5-17.8,146.7-20.2L146.7-20.2z"/>
		<path class="st0" d="M149.1-16.2c0.5,2.1,0.9,4,1.2,6.1C149.2-11.9,148.7-14.1,149.1-16.2L149.1-16.2z"/>
		<path class="st0" d="M152-11c0.5,1.2,0.7,2.3,0.7,3.6C151.8-8.3,151.5-9.7,152-11L152-11z"/>
		<path class="st0" d="M154.6-8.8c1.1,1.7,1.7,3.6,1.9,5.6C155.5-4.9,154.8-6.8,154.6-8.8L154.6-8.8z"/>
		<path class="st0" d="M158.7-4.1c1.2,1.8,2.2,3.6,3.2,5.6C160.2,0.1,159.1-1.9,158.7-4.1L158.7-4.1z"/>
		<path class="st0" d="M164.2,1.2c0.5,0.7,0.6,1.3,0.6,2.2C164,2.9,163.7,1.9,164.2,1.2L164.2,1.2z"/>
		<path class="st0" d="M167.9,4c0.7,1.6,1.3,2.9,2.2,4.4C168.6,7.6,167.7,5.7,167.9,4L167.9,4z"/>
		<path class="st0" d="M172.6,6.8c0.7,1.1,1.2,2,1.7,3.2C173.1,9.5,172.3,8.1,172.6,6.8L172.6,6.8z"/>
		<path class="st0" d="M176.9,8.4c0.8,0.5,1.2,1,1.5,1.8C177.5,10.1,176.8,9.3,176.9,8.4L176.9,8.4z"/>
		<path class="st0" d="M184.1,9.9c1.2,1,2.2,1.9,3.1,3.1C185.8,12.6,184.6,11.4,184.1,9.9L184.1,9.9z"/>
		<path class="st0" d="M154-13.4c0.5,0.8,0.5,1.6,0.1,2.4C153.6-11.8,153.6-12.6,154-13.4L154-13.4z"/>
		<path class="st0" d="M151.4-17c0.6,1.3,0.8,2.6,0.6,4C151.3-14.3,151.1-15.6,151.4-17L151.4-17z"/>
		<path class="st0" d="M149.1-21.5c0.4,1,0.4,2.1,0,3.1C148.6-19.5,148.6-20.5,149.1-21.5L149.1-21.5z"/>
		<path class="st0" d="M146.9-24.7c0.4,0.9,0.4,1.8-0.1,2.6C146.3-22.9,146.4-23.8,146.9-24.7L146.9-24.7z"/>
		<path class="st0" d="M142.5-28.2c0.5,0.7,0.6,1.4,0.2,2.2C142.2-26.7,142.1-27.4,142.5-28.2L142.5-28.2z"/>
		<path class="st0" d="M140.1-29.5c0.2,1.2,0.2,2.1,0.1,3.4C139.4-27.1,139.3-28.5,140.1-29.5L140.1-29.5z"/>
		<path class="st0" d="M162.3-4.1c0.5,0.8,0.6,1.7,0.3,2.6C162-2.3,161.9-3.2,162.3-4.1L162.3-4.1z"/>
		<path class="st0" d="M167.2,0.1c0.6,0.7,0.8,1.5,0.5,2.4C167.1,1.8,166.9,1,167.2,0.1L167.2,0.1z"/>
		<path class="st0" d="M175,5c0.6,0.4,0.8,0.9,0.6,1.6C175,6.2,174.7,5.7,175,5L175,5z"/>
		<path class="st0" d="M192.4,13.2c0.6,0,0.9,0.3,0.9,0.9C192.6,14.1,192.3,13.8,192.4,13.2L192.4,13.2z"/>
		<path class="st0" d="M168.4-19.5c0.5,0.7,0.5,1.4,0.1,2.1C168-18,168-18.7,168.4-19.5L168.4-19.5z"/>
		<path class="st0" d="M171.1-17.2c0.4,1.3,0.7,2.4,0.9,3.8C170.9-14.4,170.6-16,171.1-17.2L171.1-17.2z"/>
		<path class="st0" d="M174.3-14.8c0.4,1.3,0.6,2.5,0.5,3.9C174-12,173.8-13.5,174.3-14.8L174.3-14.8z"/>
		<path class="st0" d="M177.2-11.7c0.6,1.2,0.9,2.3,1.1,3.6C177.3-9,176.9-10.4,177.2-11.7L177.2-11.7z"/>
		<path class="st0" d="M181-7.5c0.7,1.2,1.1,2.2,1.2,3.5C181.3-4.8,180.8-6.2,181-7.5L181-7.5z"/>
		<path class="st0" d="M184.5-3.2c1.2,1.3,2.1,2.5,3.1,4C186,0.1,184.9-1.5,184.5-3.2L184.5-3.2z"/>
		<path class="st0" d="M189.9,1.9c0.7,0,1.1,0.4,1.2,1.1C190.4,3,189.9,2.6,189.9,1.9L189.9,1.9z"/>
		<path class="st0" d="M194.7,4.7c0.6-0.1,0.9,0.1,1,0.7C195.1,5.6,194.7,5.3,194.7,4.7L194.7,4.7z"/>
		<path class="st0" d="M166.7-21.1c0.4,0.6,0.3,1.2-0.2,1.8C166.1-20,166.1-20.6,166.7-21.1L166.7-21.1z"/>
		<path class="st0" d="M162.2-24.3c0.5,0.3,0.6,0.7,0.2,1.2C161.8-23.4,161.8-23.8,162.2-24.3L162.2-24.3z"/>
		<path class="st0" d="M286.8,40.3c-0.8,1.1-1.9,1.9-3.2,2.2C284.4,41.4,285.5,40.7,286.8,40.3L286.8,40.3z"/>
		<path class="st0" d="M282.5,40.7c-0.8,1.4-2.5,2.3-4.1,2.4C279.8,42.1,281,41.4,282.5,40.7L282.5,40.7z"/>
		<path class="st0" d="M276.7,40.9c-0.8,1-1.9,1.6-3.2,1.9C274.4,41.8,275.4,41.2,276.7,40.9L276.7,40.9z"/>
		<path class="st0" d="M269.5,41.2c-0.3,1-1.5,1.7-2.5,1.4C267.8,42,268.5,41.6,269.5,41.2L269.5,41.2z"/>
		<path class="st0" d="M262.7,41.5c-0.2,0.5-0.5,0.6-1,0.3C262,41.3,262.3,41.2,262.7,41.5L262.7,41.5z"/>
		<path class="st0" d="M258.4,42c-0.4,0.5-0.9,0.6-1.4,0.2C257.4,41.7,257.9,41.6,258.4,42L258.4,42z"/>
		<path class="st0" d="M253,41.2c-0.8,0.4-1.6,0.4-2.3-0.1C251.5,40.7,252.3,40.7,253,41.2L253,41.2z"/>
		<path class="st0" d="M247.4,40c-1,0.7-2.5,0.7-3.5-0.1C245.2,39.8,246.2,39.8,247.4,40L247.4,40z"/>
		<path class="st0" d="M239.4,39c-0.6,0.4-1.2,0.3-1.8-0.2C238.2,38.4,238.8,38.5,239.4,39L239.4,39z"/>
		<path class="st0" d="M292.1,39.9c-0.5,0.7-1.3,1-2.1,0.8C290.5,40,291.2,39.7,292.1,39.9L292.1,39.9z"/>
		<path class="st0" d="M288,47.2c-0.5,0.7-1.2,1-2,0.8C286.5,47.3,287.2,47,288,47.2L288,47.2z"/>
		<path class="st0" d="M291.7,47.7c-0.5,0.8-1.3,1.3-2.3,1.3C289.9,48.2,290.7,47.7,291.7,47.7L291.7,47.7z"/>
		<path class="st0" d="M297.4,47.1c-1.2,1.4-2.7,2.4-4.4,3C294.1,48.8,295.6,47.8,297.4,47.1L297.4,47.1z"/>
		<path class="st0" d="M301.5,48.8c-0.9,1.3-2.5,2-4,1.8C298.9,49.9,300.1,49.4,301.5,48.8L301.5,48.8z"/>
		<path class="st0" d="M306.7,49.6c-0.2,0.7-0.8,1.1-1.5,1.1C305.4,50,306,49.6,306.7,49.6L306.7,49.6z"/>
		<path class="st0" d="M315.9,52.2c-0.6,0.7-1.4,1-2.3,0.9C314.3,52.4,315,52.1,315.9,52.2L315.9,52.2z"/>
		<path class="st0" d="M322.4,54.3c-0.4,0.5-0.9,0.7-1.5,0.3C321.3,54,321.8,53.9,322.4,54.3L322.4,54.3z"/>
		<path class="st0" d="M330.2,57.6c-0.4,0.4-0.9,0.4-1.3,0C329.3,57.1,329.8,57.2,330.2,57.6L330.2,57.6z"/>
	</g>
</g>
<g>
	<path class="st0" d="M233.6,176.8v2.9h-22.1v-31.3h21.5v2.9h-18.2v11.1h16.2v2.8h-16.2v11.6H233.6z"/>
	<path class="st0" d="M262.7,179.7l-7.2-10.1c-0.8,0.1-1.6,0.1-2.5,0.1h-8.4v9.9h-3.3v-31.3h11.7c8,0,12.8,4,12.8,10.7
		c0,4.9-2.6,8.4-7.2,9.8l7.6,10.7H262.7z M262.6,159.1c0-5-3.3-7.9-9.6-7.9h-8.3V167h8.3C259.2,167,262.6,164,262.6,159.1z"/>
	<path class="st0" d="M295.1,179.7l-7.2-10.1c-0.8,0.1-1.6,0.1-2.5,0.1H277v9.9h-3.3v-31.3h11.7c8,0,12.8,4,12.8,10.7
		c0,4.9-2.6,8.4-7.2,9.8l7.6,10.7H295.1z M294.9,159.1c0-5-3.3-7.9-9.6-7.9H277V167h8.3C291.6,167,294.9,164,294.9,159.1z"/>
	<path class="st0" d="M303.3,164c0-9.1,7-15.9,16.5-15.9c9.4,0,16.4,6.8,16.4,15.9s-7,15.9-16.4,15.9
		C310.2,180,303.3,173.2,303.3,164z M332.8,164c0-7.5-5.6-13-13.1-13c-7.6,0-13.2,5.5-13.2,13s5.6,13,13.2,13
		C327.2,177,332.8,171.5,332.8,164z"/>
	<path class="st0" d="M364.9,179.7l-7.2-10.1c-0.8,0.1-1.6,0.1-2.5,0.1h-8.4v9.9h-3.3v-31.3h11.7c8,0,12.8,4,12.8,10.7
		c0,4.9-2.6,8.4-7.2,9.8l7.6,10.7H364.9z M364.7,159.1c0-5-3.3-7.9-9.6-7.9h-8.3V167h8.3C361.4,167,364.7,164,364.7,159.1z"/>
</g>
</svg>
