<?xml version="1.0" encoding="utf-8"?>
<!-- Generator: Adobe Illustrator 27.2.0, SVG Export Plug-In . SVG Version: 6.00 Build 0)  -->
<svg version="1.1" id="Capa_1" xmlns="http://www.w3.org/2000/svg" xmlns:xlink="http://www.w3.org/1999/xlink" x="0px" y="0px"
	 viewBox="0 0 255.2 147.4" style="enable-background:new 0 0 255.2 147.4;" xml:space="preserve">
<style type="text/css">
	.st0{fill:#1D1D1B;}
	.st1{fill:#F7A813;}
	.st2{fill:#E2E2E1;}
	.st3{fill:#FFFFFF;}
	.st4{fill:#FCC977;}
</style>
<g>
	<rect x="125.3" y="128.8" class="st0" width="1.8" height="6.6"/>
	<polygon class="st0" points="128.3,128.8 130.1,128.8 132.8,132.3 132.8,128.8 134.6,128.8 134.6,135.4 133,135.4 130.1,131.8 
		130.1,135.4 128.3,135.4 	"/>
	<polygon class="st0" points="137.3,130.4 135.4,130.4 135.4,128.8 141.1,128.8 141.1,130.4 139.2,130.4 139.2,135.4 137.3,135.4 	
		"/>
	<polygon class="st0" points="141.9,128.8 147.2,128.8 147.2,130.3 143.7,130.3 143.7,131.3 146.9,131.3 146.9,132.8 143.7,132.8 
		143.7,133.8 147.3,133.8 147.3,135.4 141.9,135.4 	"/>
	<polygon class="st0" points="148.2,128.8 150,128.8 150,133.8 153.2,133.8 153.2,135.4 148.2,135.4 	"/>
	<rect x="154" y="128.8" class="st0" width="1.8" height="6.6"/>
	<path class="st0" d="M160.4,135.5c-0.5,0-1-0.1-1.4-0.2c-0.4-0.2-0.8-0.4-1.1-0.7c-0.3-0.3-0.6-0.7-0.8-1.1
		c-0.2-0.4-0.3-0.9-0.3-1.4v0c0-0.5,0.1-0.9,0.3-1.3c0.2-0.4,0.4-0.8,0.7-1.1c0.3-0.3,0.7-0.6,1.1-0.7c0.4-0.2,0.9-0.3,1.4-0.3
		c0.6,0,1.1,0.1,1.5,0.3c0.4,0.2,0.8,0.4,1.2,0.7l-1.1,1.3c-0.2-0.2-0.5-0.4-0.7-0.5c-0.2-0.1-0.5-0.2-0.9-0.2c-0.2,0-0.5,0-0.7,0.1
		c-0.2,0.1-0.4,0.2-0.5,0.4c-0.2,0.2-0.3,0.4-0.4,0.6c-0.1,0.2-0.1,0.5-0.1,0.7v0c0,0.3,0,0.5,0.1,0.7c0.1,0.2,0.2,0.4,0.4,0.6
		c0.2,0.2,0.3,0.3,0.6,0.4c0.2,0.1,0.5,0.1,0.7,0.1c0.4,0,0.8-0.1,1.1-0.3v-0.8h-1.3v-1.3h3v3c-0.4,0.3-0.8,0.5-1.2,0.7
		C161.6,135.4,161,135.5,160.4,135.5"/>
	<polygon class="st0" points="164.3,128.8 169.6,128.8 169.6,130.3 166.1,130.3 166.1,131.3 169.3,131.3 169.3,132.8 166.1,132.8 
		166.1,133.8 169.6,133.8 169.6,135.4 164.3,135.4 	"/>
	<polygon class="st0" points="170.6,128.8 172.3,128.8 175,132.3 175,128.8 176.8,128.8 176.8,135.4 175.2,135.4 172.4,131.8 
		172.4,135.4 170.6,135.4 	"/>
	<path class="st0" d="M181.1,135.5c-0.5,0-0.9-0.1-1.3-0.3c-0.4-0.2-0.8-0.4-1.1-0.7c-0.3-0.3-0.5-0.7-0.7-1.1
		c-0.2-0.4-0.3-0.9-0.3-1.4v0c0-0.5,0.1-0.9,0.3-1.3c0.2-0.4,0.4-0.8,0.7-1.1c0.3-0.3,0.7-0.6,1.1-0.7c0.4-0.2,0.9-0.3,1.4-0.3
		c0.3,0,0.6,0,0.9,0.1c0.3,0.1,0.5,0.2,0.8,0.3c0.2,0.1,0.4,0.3,0.6,0.4c0.2,0.2,0.3,0.4,0.5,0.6l-1.4,1.1c-0.2-0.2-0.4-0.4-0.6-0.6
		c-0.2-0.1-0.5-0.2-0.8-0.2c-0.2,0-0.4,0-0.6,0.1c-0.2,0.1-0.4,0.2-0.5,0.4c-0.1,0.2-0.2,0.3-0.3,0.6c-0.1,0.2-0.1,0.4-0.1,0.7v0
		c0,0.2,0,0.5,0.1,0.7c0.1,0.2,0.2,0.4,0.3,0.6c0.1,0.2,0.3,0.3,0.5,0.4c0.2,0.1,0.4,0.1,0.6,0.1c0.2,0,0.3,0,0.5-0.1
		c0.1,0,0.3-0.1,0.4-0.2c0.1-0.1,0.2-0.2,0.3-0.3c0.1-0.1,0.2-0.2,0.3-0.3l1.4,1c-0.2,0.2-0.3,0.4-0.5,0.6c-0.2,0.2-0.4,0.3-0.6,0.5
		c-0.2,0.1-0.5,0.2-0.8,0.3C181.8,135.5,181.5,135.5,181.1,135.5"/>
	<rect x="184.9" y="128.8" class="st0" width="1.8" height="6.6"/>
	<path class="st0" d="M190.2,128.7h1.8l2.8,6.6h-2l-0.5-1.2h-2.5l-0.5,1.2h-1.9L190.2,128.7z M191.8,132.8l-0.7-1.9l-0.7,1.9H191.8z
		"/>
	<path class="st0" d="M201.1,135.5c-0.5,0-0.9-0.1-1.3-0.3c-0.4-0.2-0.8-0.4-1.1-0.7c-0.3-0.3-0.5-0.7-0.7-1.1
		c-0.2-0.4-0.3-0.9-0.3-1.4v0c0-0.5,0.1-0.9,0.3-1.3c0.2-0.4,0.4-0.8,0.7-1.1c0.3-0.3,0.7-0.6,1.1-0.7c0.4-0.2,0.9-0.3,1.4-0.3
		c0.3,0,0.6,0,0.9,0.1c0.3,0.1,0.5,0.2,0.8,0.3c0.2,0.1,0.4,0.3,0.6,0.4c0.2,0.2,0.3,0.4,0.5,0.6l-1.4,1.1c-0.2-0.2-0.4-0.4-0.6-0.6
		c-0.2-0.1-0.5-0.2-0.8-0.2c-0.2,0-0.4,0-0.6,0.1c-0.2,0.1-0.4,0.2-0.5,0.4c-0.1,0.2-0.2,0.3-0.3,0.6c-0.1,0.2-0.1,0.4-0.1,0.7v0
		c0,0.2,0,0.5,0.1,0.7c0.1,0.2,0.2,0.4,0.3,0.6c0.1,0.2,0.3,0.3,0.5,0.4c0.2,0.1,0.4,0.1,0.6,0.1c0.2,0,0.3,0,0.5-0.1
		c0.1,0,0.3-0.1,0.4-0.2c0.1-0.1,0.2-0.2,0.3-0.3c0.1-0.1,0.2-0.2,0.3-0.3l1.4,1c-0.2,0.2-0.3,0.4-0.5,0.6c-0.2,0.2-0.4,0.3-0.6,0.5
		c-0.2,0.1-0.5,0.2-0.8,0.3C201.8,135.5,201.5,135.5,201.1,135.5"/>
	<path class="st0" d="M208.2,135.5c-0.5,0-1-0.1-1.4-0.3c-0.4-0.2-0.8-0.4-1.1-0.7c-0.3-0.3-0.6-0.7-0.7-1.1
		c-0.2-0.4-0.3-0.9-0.3-1.3v0c0-0.5,0.1-0.9,0.3-1.3c0.2-0.4,0.4-0.8,0.7-1.1c0.3-0.3,0.7-0.6,1.1-0.7c0.4-0.2,0.9-0.3,1.4-0.3
		c0.5,0,1,0.1,1.4,0.3c0.4,0.2,0.8,0.4,1.1,0.7c0.3,0.3,0.6,0.7,0.7,1.1c0.2,0.4,0.3,0.9,0.3,1.3v0c0,0.5-0.1,0.9-0.3,1.3
		c-0.2,0.4-0.4,0.8-0.7,1.1c-0.3,0.3-0.7,0.6-1.1,0.7C209.1,135.4,208.7,135.5,208.2,135.5 M208.2,133.9c0.3,0,0.5,0,0.7-0.1
		c0.2-0.1,0.4-0.2,0.5-0.4c0.1-0.2,0.3-0.3,0.3-0.6c0.1-0.2,0.1-0.4,0.1-0.7v0c0-0.2,0-0.5-0.1-0.7c-0.1-0.2-0.2-0.4-0.3-0.6
		c-0.2-0.2-0.3-0.3-0.5-0.4c-0.2-0.1-0.4-0.1-0.7-0.1c-0.3,0-0.5,0-0.7,0.1c-0.2,0.1-0.4,0.2-0.5,0.4c-0.1,0.2-0.3,0.3-0.3,0.6
		c-0.1,0.2-0.1,0.4-0.1,0.7v0c0,0.2,0,0.5,0.1,0.7c0.1,0.2,0.2,0.4,0.3,0.6c0.1,0.2,0.3,0.3,0.5,0.4
		C207.7,133.8,207.9,133.9,208.2,133.9"/>
	<polygon class="st0" points="212.7,128.8 214.5,128.8 214.5,133.8 217.7,133.8 217.7,135.4 212.7,135.4 	"/>
	<polygon class="st0" points="218.5,128.8 223.7,128.8 223.7,130.3 220.2,130.3 220.2,131.3 223.4,131.3 223.4,132.8 220.2,132.8 
		220.2,133.8 223.8,133.8 223.8,135.4 218.5,135.4 	"/>
	<path class="st0" d="M227.9,135.5c-0.5,0-0.9-0.1-1.3-0.3c-0.4-0.2-0.8-0.4-1.1-0.7c-0.3-0.3-0.5-0.7-0.7-1.1
		c-0.2-0.4-0.3-0.9-0.3-1.4v0c0-0.5,0.1-0.9,0.3-1.3c0.2-0.4,0.4-0.8,0.7-1.1c0.3-0.3,0.7-0.6,1.1-0.7c0.4-0.2,0.9-0.3,1.4-0.3
		c0.3,0,0.6,0,0.9,0.1c0.3,0.1,0.5,0.2,0.8,0.3c0.2,0.1,0.4,0.3,0.6,0.4c0.2,0.2,0.3,0.4,0.5,0.6l-1.4,1.1c-0.2-0.2-0.4-0.4-0.6-0.6
		c-0.2-0.1-0.5-0.2-0.8-0.2c-0.2,0-0.4,0-0.6,0.1c-0.2,0.1-0.4,0.2-0.5,0.4c-0.1,0.2-0.2,0.3-0.3,0.6c-0.1,0.2-0.1,0.4-0.1,0.7v0
		c0,0.2,0,0.5,0.1,0.7c0.1,0.2,0.2,0.4,0.3,0.6c0.1,0.2,0.3,0.3,0.5,0.4c0.2,0.1,0.4,0.1,0.6,0.1c0.2,0,0.3,0,0.5-0.1
		c0.1,0,0.3-0.1,0.4-0.2c0.1-0.1,0.2-0.2,0.3-0.3c0.1-0.1,0.2-0.2,0.3-0.3l1.4,1c-0.2,0.2-0.3,0.4-0.5,0.6c-0.2,0.2-0.4,0.3-0.6,0.5
		c-0.2,0.1-0.5,0.2-0.8,0.3C228.6,135.5,228.3,135.5,227.9,135.5"/>
	<polygon class="st0" points="233.2,130.4 231.2,130.4 231.2,128.8 237,128.8 237,130.4 235,130.4 235,135.4 233.2,135.4 	"/>
	<rect x="237.8" y="128.8" class="st0" width="1.8" height="6.6"/>
	<polygon class="st0" points="240.3,128.8 242.4,128.8 243.9,133 245.4,128.8 247.4,128.8 244.7,135.4 243,135.4 	"/>
	<path class="st0" d="M250.3,128.7h1.8l2.8,6.6h-2l-0.5-1.2h-2.5l-0.5,1.2h-1.9L250.3,128.7z M251.9,132.8l-0.7-1.9l-0.7,1.9H251.9z
		"/>
	<path d="M143.6,22.9L104.8,0.5L72,19.4L39.3,0.5L0.5,22.9v44.8L33,86.5v38.1L71.8,147l38.8-22.4V86.8l33-19.1V22.9z M98.5,97.2
		H45.1V86.8l26.7-15.4l26.7,15.4V97.2z M12.6,29.9l26.7-15.4L66,29.9v30.8L39.3,76.1L12.6,60.7V29.9z M71.8,133l-26.7-15.4v-8.3
		h53.4v8.3L71.8,133z M131.5,60.7l-26.7,15.4L78.1,60.7V29.9l26.7-15.4l26.7,15.4V60.7z"/>
	<polygon points="88.6,31.7 88.6,12.7 72.1,3.1 55.6,12.7 55.6,31.7 72.1,41.2 	"/>
	<polygon class="st1" points="98.5,97.2 45.1,97.2 45.1,86.8 71.8,71.4 98.5,86.8 	"/>
	<polygon class="st1" points="71.8,133 45.1,117.6 45.1,109.3 98.5,109.3 98.5,117.6 	"/>
	<polygon class="st2" points="12.6,29.9 39.3,14.5 66,29.9 66,60.7 39.3,76.1 12.6,60.7 	"/>
	<polygon class="st2" points="131.5,60.7 104.8,76.1 78.1,60.7 78.1,29.9 104.8,14.5 131.5,29.9 	"/>
	<polygon class="st3" points="12.6,29.9 39.3,14.5 12.6,60.7 	"/>
	<polygon class="st3" points="131.5,60.7 104.8,14.5 131.5,29.9 	"/>
	<polygon class="st4" points="98.5,97.2 71.8,71.4 98.5,86.8 	"/>
	<polygon class="st4" points="71.8,133 98.5,109.3 98.5,117.6 	"/>
	<rect x="151.2" y="23.8" class="st0" width="12.2" height="43.9"/>
	<polygon class="st0" points="208.6,23.8 196.2,23.8 196.2,45.7 183.8,23.9 171.5,23.9 171.4,23.9 171.5,24 171.5,67.7 183.8,67.7 
		183.8,46.5 195.5,67.7 208.6,67.7 208.6,67.7 208.6,67.7 	"/>
	<path class="st0" d="M157.7,85.8c-2-2-4.4-3.5-7.2-4.7c-2.8-1.1-5.8-1.7-9.1-1.7c-3.3,0-6.3,0.6-9.1,1.7c-2.8,1.2-5.2,2.7-7.3,4.7
		c-2.1,2-3.7,4.3-4.8,7c-1.2,2.7-1.7,5.5-1.7,8.6v0.1c0,3,0.6,5.9,1.7,8.5c1.2,2.7,2.7,5,4.8,7c2,2,4.4,3.5,7.2,4.7
		c2.8,1.2,5.8,1.7,9.1,1.7c3.3,0,6.3-0.6,9.1-1.7c2.8-1.1,5.2-2.7,7.3-4.7c2.1-2,3.7-4.3,4.8-7c1.1-2.7,1.7-5.5,1.7-8.6v-0.1
		c0-3-0.6-5.9-1.7-8.5C161.3,90.1,159.8,87.7,157.7,85.8 M152.2,101.5c0,1.5-0.3,3-0.8,4.4c-0.5,1.4-1.3,2.6-2.2,3.6
		c-0.9,1-2.1,1.8-3.4,2.5c-1.3,0.6-2.8,0.9-4.4,0.9c-1.6,0-3.1-0.3-4.4-0.9c-1.3-0.6-2.5-1.5-3.4-2.5c-1-1-1.7-2.3-2.2-3.6
		c-0.5-1.4-0.8-2.8-0.8-4.4v-0.1c0-1.5,0.3-3,0.8-4.4c0.5-1.4,1.2-2.6,2.2-3.6c1-1,2.1-1.8,3.4-2.5c1.3-0.6,2.8-0.9,4.4-0.9
		c1.6,0,3.1,0.3,4.4,0.9c1.3,0.6,2.5,1.5,3.5,2.5c1,1.1,1.7,2.3,2.2,3.6c0.5,1.4,0.8,2.8,0.8,4.4V101.5z"/>
	<polygon class="st0" points="209.9,79.5 209.9,79.5 196.4,79.5 196.4,79.5 185.3,106.8 174.2,79.5 160.8,79.5 178.6,123.3 
		178.6,123.3 192.1,123.3 192.1,123.3 203.2,96.1 	"/>
	<polygon class="st0" points="200.3,123.3 200.3,123.3 213.8,123.3 213.8,123.3 224.9,96.1 236,123.3 249.4,123.3 231.6,79.5 
		231.6,79.5 218.1,79.5 218.1,79.5 207,106.8 	"/>
	<path class="st0" d="M219.1,27c-3.2,0-5.8-2.6-5.8-5.8c0-3.2,2.6-5.8,5.8-5.8c3.2,0,5.8,2.6,5.8,5.8C224.9,24.4,222.3,27,219.1,27
		 M219.1,16.8c-2.5,0-4.5,2-4.5,4.5c0,2.5,2,4.5,4.5,4.5c2.5,0,4.5-2,4.5-4.5C223.6,18.8,221.6,16.8,219.1,16.8"/>
	<path class="st0" d="M217.1,18.6h2.4c0.4,0,0.7,0,1,0.1c0.3,0.1,0.5,0.2,0.7,0.4c0.3,0.3,0.4,0.7,0.4,1.2v0c0,0.4-0.1,0.7-0.3,1
		c-0.2,0.3-0.4,0.4-0.8,0.6l1.2,1.8h-1.6l-1-1.5h0h-0.6v1.5h-1.4V18.6z M219.4,21c0.2,0,0.4-0.1,0.6-0.2c0.1-0.1,0.2-0.3,0.2-0.4v0
		c0-0.2-0.1-0.3-0.2-0.5c-0.1-0.1-0.3-0.1-0.6-0.1h-0.9V21H219.4z"/>
</g>
</svg>
